<?xml version="1.0" encoding="utf-8" standalone="no"?>
<!DOCTYPE svg PUBLIC "-//W3C//DTD SVG 1.1//EN"
  "http://www.w3.org/Graphics/SVG/1.1/DTD/svg11.dtd">
<svg xmlns:xlink="http://www.w3.org/1999/xlink" width="464.3pt" height="184.22pt" viewBox="0 0 464.3 184.22" xmlns="http://www.w3.org/2000/svg" version="1.1">
 <metadata>
  <rdf:RDF xmlns:dc="http://purl.org/dc/elements/1.1/" xmlns:cc="http://creativecommons.org/ns#" xmlns:rdf="http://www.w3.org/1999/02/22-rdf-syntax-ns#">
   <cc:Work>
    <dc:type rdf:resource="http://purl.org/dc/dcmitype/StillImage"/>
    <dc:date>2024-12-06T22:09:23.612934</dc:date>
    <dc:format>image/svg+xml</dc:format>
    <dc:creator>
     <cc:Agent>
      <dc:title>Matplotlib v3.8.2, https://matplotlib.org/</dc:title>
     </cc:Agent>
    </dc:creator>
   </cc:Work>
  </rdf:RDF>
 </metadata>
 <defs>
  <style type="text/css">*{stroke-linejoin: round; stroke-linecap: butt}</style>
 </defs>
 <g id="figure_1">
  <g id="patch_1">
   <path d="M 0 184.22 
L 464.3 184.22 
L 464.3 0 
L 0 0 
z
" style="fill: #ffffff"/>
  </g>
  <g id="axes_1">
   <g id="patch_2">
    <path d="M 10.7 173.52 
L 457.1 173.52 
L 457.1 7.2 
L 10.7 7.2 
z
" style="fill: #ffffff"/>
   </g>
   <g id="patch_3">
    <path d="M 30.990909 173.52 
L 52.349761 173.52 
L 52.349761 55.73149 
L 30.990909 55.73149 
z
" clip-path="url(#pfdd03b2df0)" style="fill: #a9bed9"/>
   </g>
   <g id="patch_4">
    <path d="M 116.426316 173.52 
L 137.785167 173.52 
L 137.785167 117.114483 
L 116.426316 117.114483 
z
" clip-path="url(#pfdd03b2df0)" style="fill: #a9bed9"/>
   </g>
   <g id="patch_5">
    <path d="M 201.861722 173.52 
L 223.220574 173.52 
L 223.220574 118.22015 
L 201.861722 118.22015 
z
" clip-path="url(#pfdd03b2df0)" style="fill: #a9bed9"/>
   </g>
   <g id="patch_6">
    <path d="M 287.297129 173.52 
L 308.655981 173.52 
L 308.655981 139.34817 
L 287.297129 139.34817 
z
" clip-path="url(#pfdd03b2df0)" style="fill: #a9bed9"/>
   </g>
   <g id="patch_7">
    <path d="M 372.732536 173.52 
L 394.091388 173.52 
L 394.091388 140.733489 
L 372.732536 140.733489 
z
" clip-path="url(#pfdd03b2df0)" style="fill: #a9bed9"/>
   </g>
   <g id="patch_8">
    <path d="M 52.349761 173.52 
L 73.708612 173.52 
L 73.708612 63.485128 
L 52.349761 63.485128 
z
" clip-path="url(#pfdd03b2df0)" style="fill: #e3f0f6"/>
   </g>
   <g id="patch_9">
    <path d="M 137.785167 173.52 
L 159.144019 173.52 
L 159.144019 115.143215 
L 137.785167 115.143215 
z
" clip-path="url(#pfdd03b2df0)" style="fill: #e3f0f6"/>
   </g>
   <g id="patch_10">
    <path d="M 223.220574 173.52 
L 244.579426 173.52 
L 244.579426 120.627784 
L 223.220574 120.627784 
z
" clip-path="url(#pfdd03b2df0)" style="fill: #e3f0f6"/>
   </g>
   <g id="patch_11">
    <path d="M 308.655981 173.52 
L 330.014833 173.52 
L 330.014833 134.339426 
L 308.655981 134.339426 
z
" clip-path="url(#pfdd03b2df0)" style="fill: #e3f0f6"/>
   </g>
   <g id="patch_12">
    <path d="M 394.091388 173.52 
L 415.450239 173.52 
L 415.450239 143.004566 
L 394.091388 143.004566 
z
" clip-path="url(#pfdd03b2df0)" style="fill: #e3f0f6"/>
   </g>
   <g id="patch_13">
    <path d="M 73.708612 173.52 
L 95.067464 173.52 
L 95.067464 122.046747 
L 73.708612 122.046747 
z
" clip-path="url(#pfdd03b2df0)" style="fill: #e8a19d"/>
   </g>
   <g id="patch_14">
    <path d="M 159.144019 173.52 
L 180.502871 173.52 
L 180.502871 112.489719 
L 159.144019 112.489719 
z
" clip-path="url(#pfdd03b2df0)" style="fill: #e8a19d"/>
   </g>
   <g id="patch_15">
    <path d="M 244.579426 173.52 
L 265.938278 173.52 
L 265.938278 126.606595 
L 244.579426 126.606595 
z
" clip-path="url(#pfdd03b2df0)" style="fill: #e8a19d"/>
   </g>
   <g id="patch_16">
    <path d="M 330.014833 173.52 
L 351.373684 173.52 
L 351.373684 142.430318 
L 330.014833 142.430318 
z
" clip-path="url(#pfdd03b2df0)" style="fill: #e8a19d"/>
   </g>
   <g id="patch_17">
    <path d="M 415.450239 173.52 
L 436.809091 173.52 
L 436.809091 143.539769 
L 415.450239 143.539769 
z
" clip-path="url(#pfdd03b2df0)" style="fill: #e8a19d"/>
   </g>
   <g id="matplotlib.axis_1">
    <g id="xtick_1">
     <g id="line2d_1">
      <defs>
       <path id="m010368de03" d="M 0 0 
L 0 3.5 
" style="stroke: #000000; stroke-width: 0.8"/>
      </defs>
      <g>
       <use xlink:href="#m010368de03" x="63.029187" y="173.52" style="stroke: #000000; stroke-width: 0.8"/>
      </g>
     </g>
    </g>
    <g id="xtick_2">
     <g id="line2d_2">
      <g>
       <use xlink:href="#m010368de03" x="148.464593" y="173.52" style="stroke: #000000; stroke-width: 0.8"/>
      </g>
     </g>
    </g>
    <g id="xtick_3">
     <g id="line2d_3">
      <g>
       <use xlink:href="#m010368de03" x="233.9" y="173.52" style="stroke: #000000; stroke-width: 0.8"/>
      </g>
     </g>
    </g>
    <g id="xtick_4">
     <g id="line2d_4">
      <g>
       <use xlink:href="#m010368de03" x="319.335407" y="173.52" style="stroke: #000000; stroke-width: 0.8"/>
      </g>
     </g>
    </g>
    <g id="xtick_5">
     <g id="line2d_5">
      <g>
       <use xlink:href="#m010368de03" x="404.770813" y="173.52" style="stroke: #000000; stroke-width: 0.8"/>
      </g>
     </g>
    </g>
   </g>
   <g id="matplotlib.axis_2">
    <g id="ytick_1">
     <g id="line2d_6">
      <defs>
       <path id="m18f447eaee" d="M 0 0 
L -3.5 0 
" style="stroke: #000000; stroke-width: 0.8"/>
      </defs>
      <g>
       <use xlink:href="#m18f447eaee" x="10.7" y="173.52" style="stroke: #000000; stroke-width: 0.8"/>
      </g>
     </g>
    </g>
    <g id="ytick_2">
     <g id="line2d_7">
      <g>
       <use xlink:href="#m18f447eaee" x="10.7" y="140.256" style="stroke: #000000; stroke-width: 0.8"/>
      </g>
     </g>
    </g>
    <g id="ytick_3">
     <g id="line2d_8">
      <g>
       <use xlink:href="#m18f447eaee" x="10.7" y="106.992" style="stroke: #000000; stroke-width: 0.8"/>
      </g>
     </g>
    </g>
    <g id="ytick_4">
     <g id="line2d_9">
      <g>
       <use xlink:href="#m18f447eaee" x="10.7" y="73.728" style="stroke: #000000; stroke-width: 0.8"/>
      </g>
     </g>
    </g>
    <g id="ytick_5">
     <g id="line2d_10">
      <g>
       <use xlink:href="#m18f447eaee" x="10.7" y="40.464" style="stroke: #000000; stroke-width: 0.8"/>
      </g>
     </g>
    </g>
    <g id="ytick_6">
     <g id="line2d_11">
      <g>
       <use xlink:href="#m18f447eaee" x="10.7" y="7.2" style="stroke: #000000; stroke-width: 0.8"/>
      </g>
     </g>
    </g>
   </g>
   <g id="PathCollection_1">
    <defs>
     <path id="mb7580c9508" d="M 0 3 
C 0.795609 3 1.55874 2.683901 2.12132 2.12132 
C 2.683901 1.55874 3 0.795609 3 0 
C 3 -0.795609 2.683901 -1.55874 2.12132 -2.12132 
C 1.55874 -2.683901 0.795609 -3 0 -3 
C -0.795609 -3 -1.55874 -2.683901 -2.12132 -2.12132 
C -2.683901 -1.55874 -3 -0.795609 -3 0 
C -3 0.795609 -2.683901 1.55874 -2.12132 2.12132 
C -1.55874 2.683901 -0.795609 3 0 3 
z
" style="stroke: #7794b4"/>
    </defs>
    <g clip-path="url(#pfdd03b2df0)">
     <use xlink:href="#mb7580c9508" x="43.593536" y="53.939647" style="fill: #7794b4; stroke: #7794b4"/>
     <use xlink:href="#mb7580c9508" x="43.359135" y="55.495962" style="fill: #7794b4; stroke: #7794b4"/>
     <use xlink:href="#mb7580c9508" x="36.057634" y="60.036225" style="fill: #7794b4; stroke: #7794b4"/>
     <use xlink:href="#mb7580c9508" x="35.999807" y="57.00348" style="fill: #7794b4; stroke: #7794b4"/>
     <use xlink:href="#mb7580c9508" x="42.535325" y="61.312204" style="fill: #7794b4; stroke: #7794b4"/>
     <use xlink:href="#mb7580c9508" x="43.838629" y="54.170408" style="fill: #7794b4; stroke: #7794b4"/>
     <use xlink:href="#mb7580c9508" x="43.69126" y="49.710357" style="fill: #7794b4; stroke: #7794b4"/>
     <use xlink:href="#mb7580c9508" x="46.935754" y="54.183628" style="fill: #7794b4; stroke: #7794b4"/>
    </g>
   </g>
   <g id="PathCollection_2">
    <defs>
     <path id="md3eca34350" d="M 0 3 
C 0.795609 3 1.55874 2.683901 2.12132 2.12132 
C 2.683901 1.55874 3 0.795609 3 0 
C 3 -0.795609 2.683901 -1.55874 2.12132 -2.12132 
C 1.55874 -2.683901 0.795609 -3 0 -3 
C -0.795609 -3 -1.55874 -2.683901 -2.12132 -2.12132 
C -2.683901 -1.55874 -3 -0.795609 -3 0 
C -3 0.795609 -2.683901 1.55874 -2.12132 2.12132 
C -1.55874 2.683901 -0.795609 3 0 3 
z
" style="stroke: #b0c8cf"/>
    </defs>
    <g clip-path="url(#pfdd03b2df0)">
     <use xlink:href="#md3eca34350" x="60.489447" y="40.603835" style="fill: #b0c8cf; stroke: #b0c8cf"/>
     <use xlink:href="#md3eca34350" x="63.028694" y="131.161723" style="fill: #b0c8cf; stroke: #b0c8cf"/>
     <use xlink:href="#md3eca34350" x="56.90687" y="40.587593" style="fill: #b0c8cf; stroke: #b0c8cf"/>
     <use xlink:href="#md3eca34350" x="61.105051" y="40.671104" style="fill: #b0c8cf; stroke: #b0c8cf"/>
     <use xlink:href="#md3eca34350" x="59.308941" y="40.531832" style="fill: #b0c8cf; stroke: #b0c8cf"/>
     <use xlink:href="#md3eca34350" x="56.745446" y="110.248023" style="fill: #b0c8cf; stroke: #b0c8cf"/>
     <use xlink:href="#md3eca34350" x="60.057851" y="40.591796" style="fill: #b0c8cf; stroke: #b0c8cf"/>
    </g>
   </g>
   <g id="PathCollection_3">
    <defs>
     <path id="m9f0c724bb2" d="M 0 3 
C 0.795609 3 1.55874 2.683901 2.12132 2.12132 
C 2.683901 1.55874 3 0.795609 3 0 
C 3 -0.795609 2.683901 -1.55874 2.12132 -2.12132 
C 1.55874 -2.683901 0.795609 -3 0 -3 
C -0.795609 -3 -1.55874 -2.683901 -2.12132 -2.12132 
C -2.683901 -1.55874 -3 -0.795609 -3 0 
C -3 0.795609 -2.683901 1.55874 -2.12132 2.12132 
C -1.55874 2.683901 -0.795609 3 0 3 
z
" style="stroke: #b5706b"/>
    </defs>
    <g clip-path="url(#pfdd03b2df0)">
     <use xlink:href="#m9f0c724bb2" x="79.800954" y="136.359632" style="fill: #b5706b; stroke: #b5706b"/>
     <use xlink:href="#m9f0c724bb2" x="89.898716" y="132.292586" style="fill: #b5706b; stroke: #b5706b"/>
     <use xlink:href="#m9f0c724bb2" x="89.661602" y="119.894336" style="fill: #b5706b; stroke: #b5706b"/>
     <use xlink:href="#m9f0c724bb2" x="88.795763" y="118.107156" style="fill: #b5706b; stroke: #b5706b"/>
     <use xlink:href="#m9f0c724bb2" x="87.821627" y="127.241519" style="fill: #b5706b; stroke: #b5706b"/>
     <use xlink:href="#m9f0c724bb2" x="87.004742" y="136.097251" style="fill: #b5706b; stroke: #b5706b"/>
     <use xlink:href="#m9f0c724bb2" x="90.527129" y="90.054539" style="fill: #b5706b; stroke: #b5706b"/>
     <use xlink:href="#m9f0c724bb2" x="85.733006" y="116.326947" style="fill: #b5706b; stroke: #b5706b"/>
    </g>
   </g>
   <g id="PathCollection_4">
    <g clip-path="url(#pfdd03b2df0)">
     <use xlink:href="#mb7580c9508" x="132.11456" y="103.121252" style="fill: #7794b4; stroke: #7794b4"/>
     <use xlink:href="#mb7580c9508" x="130.755923" y="133.988391" style="fill: #7794b4; stroke: #7794b4"/>
     <use xlink:href="#mb7580c9508" x="129.331616" y="116.758396" style="fill: #7794b4; stroke: #7794b4"/>
     <use xlink:href="#mb7580c9508" x="124.006255" y="133.142449" style="fill: #7794b4; stroke: #7794b4"/>
     <use xlink:href="#mb7580c9508" x="126.282943" y="137.79287" style="fill: #7794b4; stroke: #7794b4"/>
     <use xlink:href="#mb7580c9508" x="122.777426" y="131.438927" style="fill: #7794b4; stroke: #7794b4"/>
     <use xlink:href="#mb7580c9508" x="130.157872" y="48.207336" style="fill: #7794b4; stroke: #7794b4"/>
     <use xlink:href="#mb7580c9508" x="124.658669" y="132.466261" style="fill: #7794b4; stroke: #7794b4"/>
    </g>
   </g>
   <g id="PathCollection_5">
    <g clip-path="url(#pfdd03b2df0)">
     <use xlink:href="#md3eca34350" x="145.683404" y="120.498917" style="fill: #b0c8cf; stroke: #b0c8cf"/>
     <use xlink:href="#md3eca34350" x="143.731439" y="137.488694" style="fill: #b0c8cf; stroke: #b0c8cf"/>
     <use xlink:href="#md3eca34350" x="148.06331" y="131.969019" style="fill: #b0c8cf; stroke: #b0c8cf"/>
     <use xlink:href="#md3eca34350" x="150.742448" y="135.943438" style="fill: #b0c8cf; stroke: #b0c8cf"/>
     <use xlink:href="#md3eca34350" x="142.547486" y="80.465018" style="fill: #b0c8cf; stroke: #b0c8cf"/>
     <use xlink:href="#md3eca34350" x="145.443542" y="131.696443" style="fill: #b0c8cf; stroke: #b0c8cf"/>
     <use xlink:href="#md3eca34350" x="144.276114" y="50.749659" style="fill: #b0c8cf; stroke: #b0c8cf"/>
     <use xlink:href="#md3eca34350" x="144.115364" y="132.334508" style="fill: #b0c8cf; stroke: #b0c8cf"/>
    </g>
   </g>
   <g id="PathCollection_6">
    <g clip-path="url(#pfdd03b2df0)">
     <use xlink:href="#m9f0c724bb2" x="165.811724" y="113.494934" style="fill: #b5706b; stroke: #b5706b"/>
     <use xlink:href="#m9f0c724bb2" x="163.925936" y="138.814454" style="fill: #b5706b; stroke: #b5706b"/>
     <use xlink:href="#m9f0c724bb2" x="168.522333" y="117.352446" style="fill: #b5706b; stroke: #b5706b"/>
     <use xlink:href="#m9f0c724bb2" x="165.730395" y="134.640561" style="fill: #b5706b; stroke: #b5706b"/>
     <use xlink:href="#m9f0c724bb2" x="169.148501" y="83.383045" style="fill: #b5706b; stroke: #b5706b"/>
     <use xlink:href="#m9f0c724bb2" x="175.421578" y="120.548754" style="fill: #b5706b; stroke: #b5706b"/>
     <use xlink:href="#m9f0c724bb2" x="169.209545" y="61.232849" style="fill: #b5706b; stroke: #b5706b"/>
     <use xlink:href="#m9f0c724bb2" x="175.683582" y="130.450687" style="fill: #b5706b; stroke: #b5706b"/>
    </g>
   </g>
   <g id="PathCollection_7">
    <g clip-path="url(#pfdd03b2df0)">
     <use xlink:href="#mb7580c9508" x="218.477571" y="145.751139" style="fill: #7794b4; stroke: #7794b4"/>
     <use xlink:href="#mb7580c9508" x="217.341149" y="120.08038" style="fill: #7794b4; stroke: #7794b4"/>
     <use xlink:href="#mb7580c9508" x="216.88645" y="132.613226" style="fill: #7794b4; stroke: #7794b4"/>
     <use xlink:href="#mb7580c9508" x="208.22133" y="124.677145" style="fill: #7794b4; stroke: #7794b4"/>
     <use xlink:href="#mb7580c9508" x="213.325787" y="125.089052" style="fill: #7794b4; stroke: #7794b4"/>
     <use xlink:href="#mb7580c9508" x="206.159667" y="133.608068" style="fill: #7794b4; stroke: #7794b4"/>
     <use xlink:href="#mb7580c9508" x="215.936931" y="23.33582" style="fill: #7794b4; stroke: #7794b4"/>
     <use xlink:href="#mb7580c9508" x="216.785363" y="140.606329" style="fill: #7794b4; stroke: #7794b4"/>
    </g>
   </g>
   <g id="PathCollection_8">
    <g clip-path="url(#pfdd03b2df0)">
     <use xlink:href="#md3eca34350" x="238.077298" y="150.107846" style="fill: #b0c8cf; stroke: #b0c8cf"/>
     <use xlink:href="#md3eca34350" x="228.818273" y="119.158235" style="fill: #b0c8cf; stroke: #b0c8cf"/>
     <use xlink:href="#md3eca34350" x="231.689342" y="138.825101" style="fill: #b0c8cf; stroke: #b0c8cf"/>
     <use xlink:href="#md3eca34350" x="231.460544" y="146.580724" style="fill: #b0c8cf; stroke: #b0c8cf"/>
     <use xlink:href="#md3eca34350" x="238.043452" y="121.547538" style="fill: #b0c8cf; stroke: #b0c8cf"/>
     <use xlink:href="#md3eca34350" x="229.249938" y="96.363289" style="fill: #b0c8cf; stroke: #b0c8cf"/>
     <use xlink:href="#md3eca34350" x="239.266453" y="44.634293" style="fill: #b0c8cf; stroke: #b0c8cf"/>
     <use xlink:href="#md3eca34350" x="236.391646" y="147.805259" style="fill: #b0c8cf; stroke: #b0c8cf"/>
    </g>
   </g>
   <g id="PathCollection_9">
    <g clip-path="url(#pfdd03b2df0)">
     <use xlink:href="#m9f0c724bb2" x="249.162864" y="152.830435" style="fill: #b5706b; stroke: #b5706b"/>
     <use xlink:href="#m9f0c724bb2" x="253.609131" y="131.984611" style="fill: #b5706b; stroke: #b5706b"/>
     <use xlink:href="#m9f0c724bb2" x="251.034887" y="124.857895" style="fill: #b5706b; stroke: #b5706b"/>
     <use xlink:href="#m9f0c724bb2" x="261.066894" y="134.390251" style="fill: #b5706b; stroke: #b5706b"/>
     <use xlink:href="#m9f0c724bb2" x="257.759644" y="137.787604" style="fill: #b5706b; stroke: #b5706b"/>
     <use xlink:href="#m9f0c724bb2" x="251.749995" y="123.377659" style="fill: #b5706b; stroke: #b5706b"/>
     <use xlink:href="#m9f0c724bb2" x="258.461694" y="70.244194" style="fill: #b5706b; stroke: #b5706b"/>
     <use xlink:href="#m9f0c724bb2" x="259.515691" y="137.380102" style="fill: #b5706b; stroke: #b5706b"/>
    </g>
   </g>
   <g id="PathCollection_10">
    <g clip-path="url(#pfdd03b2df0)">
     <use xlink:href="#mb7580c9508" x="293.982393" y="110.591889" style="fill: #7794b4; stroke: #7794b4"/>
     <use xlink:href="#mb7580c9508" x="303.653773" y="145.777007" style="fill: #7794b4; stroke: #7794b4"/>
     <use xlink:href="#mb7580c9508" x="298.035683" y="148.84735" style="fill: #7794b4; stroke: #7794b4"/>
     <use xlink:href="#mb7580c9508" x="292.26518" y="144.165436" style="fill: #7794b4; stroke: #7794b4"/>
     <use xlink:href="#mb7580c9508" x="295.825909" y="136.112569" style="fill: #7794b4; stroke: #7794b4"/>
     <use xlink:href="#mb7580c9508" x="301.122185" y="145.837862" style="fill: #7794b4; stroke: #7794b4"/>
     <use xlink:href="#mb7580c9508" x="301.683183" y="148.587146" style="fill: #7794b4; stroke: #7794b4"/>
     <use xlink:href="#mb7580c9508" x="296.536717" y="134.866092" style="fill: #7794b4; stroke: #7794b4"/>
    </g>
   </g>
   <g id="PathCollection_11">
    <g clip-path="url(#pfdd03b2df0)">
     <use xlink:href="#md3eca34350" x="313.051152" y="75.332622" style="fill: #b0c8cf; stroke: #b0c8cf"/>
     <use xlink:href="#md3eca34350" x="323.541845" y="125.975905" style="fill: #b0c8cf; stroke: #b0c8cf"/>
     <use xlink:href="#md3eca34350" x="317.740241" y="153.261162" style="fill: #b0c8cf; stroke: #b0c8cf"/>
     <use xlink:href="#md3eca34350" x="313.263435" y="129.921198" style="fill: #b0c8cf; stroke: #b0c8cf"/>
     <use xlink:href="#md3eca34350" x="316.243099" y="150.842692" style="fill: #b0c8cf; stroke: #b0c8cf"/>
     <use xlink:href="#md3eca34350" x="314.224685" y="145.580097" style="fill: #b0c8cf; stroke: #b0c8cf"/>
     <use xlink:href="#md3eca34350" x="315.241739" y="151.261962" style="fill: #b0c8cf; stroke: #b0c8cf"/>
     <use xlink:href="#md3eca34350" x="322.961408" y="142.539752" style="fill: #b0c8cf; stroke: #b0c8cf"/>
    </g>
   </g>
   <g id="PathCollection_12">
    <g clip-path="url(#pfdd03b2df0)">
     <use xlink:href="#m9f0c724bb2" x="337.363402" y="96.464858" style="fill: #b5706b; stroke: #b5706b"/>
     <use xlink:href="#m9f0c724bb2" x="340.732495" y="146.04263" style="fill: #b5706b; stroke: #b5706b"/>
     <use xlink:href="#m9f0c724bb2" x="345.053897" y="154.352512" style="fill: #b5706b; stroke: #b5706b"/>
     <use xlink:href="#m9f0c724bb2" x="340.364072" y="151.155785" style="fill: #b5706b; stroke: #b5706b"/>
     <use xlink:href="#m9f0c724bb2" x="342.0226" y="151.899009" style="fill: #b5706b; stroke: #b5706b"/>
     <use xlink:href="#m9f0c724bb2" x="334.694551" y="151.27675" style="fill: #b5706b; stroke: #b5706b"/>
     <use xlink:href="#m9f0c724bb2" x="342.985753" y="157.89829" style="fill: #b5706b; stroke: #b5706b"/>
     <use xlink:href="#m9f0c724bb2" x="334.670407" y="130.352703" style="fill: #b5706b; stroke: #b5706b"/>
    </g>
   </g>
   <g id="PathCollection_13">
    <g clip-path="url(#pfdd03b2df0)">
     <use xlink:href="#mb7580c9508" x="385.057236" y="144.269238" style="fill: #7794b4; stroke: #7794b4"/>
     <use xlink:href="#mb7580c9508" x="385.194015" y="150.846915" style="fill: #7794b4; stroke: #7794b4"/>
     <use xlink:href="#mb7580c9508" x="381.834367" y="151.716864" style="fill: #7794b4; stroke: #7794b4"/>
     <use xlink:href="#mb7580c9508" x="383.273212" y="119.224235" style="fill: #7794b4; stroke: #7794b4"/>
     <use xlink:href="#mb7580c9508" x="381.625171" y="120.827735" style="fill: #7794b4; stroke: #7794b4"/>
     <use xlink:href="#mb7580c9508" x="385.250682" y="156.180848" style="fill: #7794b4; stroke: #7794b4"/>
     <use xlink:href="#mb7580c9508" x="377.933855" y="147.533164" style="fill: #7794b4; stroke: #7794b4"/>
     <use xlink:href="#mb7580c9508" x="385.946465" y="135.268907" style="fill: #7794b4; stroke: #7794b4"/>
    </g>
   </g>
   <g id="PathCollection_14">
    <g clip-path="url(#pfdd03b2df0)">
     <use xlink:href="#md3eca34350" x="410.730119" y="154.469948" style="fill: #b0c8cf; stroke: #b0c8cf"/>
     <use xlink:href="#md3eca34350" x="410.31038" y="149.163551" style="fill: #b0c8cf; stroke: #b0c8cf"/>
     <use xlink:href="#md3eca34350" x="407.705996" y="126.824912" style="fill: #b0c8cf; stroke: #b0c8cf"/>
     <use xlink:href="#md3eca34350" x="408.066141" y="130.408119" style="fill: #b0c8cf; stroke: #b0c8cf"/>
     <use xlink:href="#md3eca34350" x="409.868735" y="140.203966" style="fill: #b0c8cf; stroke: #b0c8cf"/>
     <use xlink:href="#md3eca34350" x="404.686071" y="159.151521" style="fill: #b0c8cf; stroke: #b0c8cf"/>
     <use xlink:href="#md3eca34350" x="406.014575" y="134.204611" style="fill: #b0c8cf; stroke: #b0c8cf"/>
     <use xlink:href="#md3eca34350" x="405.301247" y="149.609908" style="fill: #b0c8cf; stroke: #b0c8cf"/>
    </g>
   </g>
   <g id="PathCollection_15">
    <g clip-path="url(#pfdd03b2df0)">
     <use xlink:href="#m9f0c724bb2" x="427.637661" y="132.077884" style="fill: #b5706b; stroke: #b5706b"/>
     <use xlink:href="#m9f0c724bb2" x="424.821857" y="146.375653" style="fill: #b5706b; stroke: #b5706b"/>
     <use xlink:href="#m9f0c724bb2" x="428.681115" y="138.548774" style="fill: #b5706b; stroke: #b5706b"/>
     <use xlink:href="#m9f0c724bb2" x="432.324328" y="133.444686" style="fill: #b5706b; stroke: #b5706b"/>
     <use xlink:href="#m9f0c724bb2" x="421.874806" y="147.492951" style="fill: #b5706b; stroke: #b5706b"/>
     <use xlink:href="#m9f0c724bb2" x="427.907552" y="156.563481" style="fill: #b5706b; stroke: #b5706b"/>
     <use xlink:href="#m9f0c724bb2" x="426.862322" y="141.409205" style="fill: #b5706b; stroke: #b5706b"/>
     <use xlink:href="#m9f0c724bb2" x="422.760165" y="152.405509" style="fill: #b5706b; stroke: #b5706b"/>
    </g>
   </g>
   <g id="LineCollection_1">
    <path d="M 41.670335 59.189201 
L 41.670335 52.273778 
" clip-path="url(#pfdd03b2df0)" style="fill: none; stroke: #000000"/>
    <path d="M 127.105742 145.297409 
L 127.105742 88.931558 
" clip-path="url(#pfdd03b2df0)" style="fill: none; stroke: #000000"/>
    <path d="M 212.541148 154.959803 
L 212.541148 81.480496 
" clip-path="url(#pfdd03b2df0)" style="fill: none; stroke: #000000"/>
    <path d="M 297.976555 151.284078 
L 297.976555 127.412263 
" clip-path="url(#pfdd03b2df0)" style="fill: none; stroke: #000000"/>
    <path d="M 383.411962 154.004805 
L 383.411962 127.462173 
" clip-path="url(#pfdd03b2df0)" style="fill: none; stroke: #000000"/>
   </g>
   <g id="line2d_12">
    <defs>
     <path id="m3c18a2ee6f" d="M 3 0 
L -3 -0 
" style="stroke: #000000"/>
    </defs>
    <g clip-path="url(#pfdd03b2df0)">
     <use xlink:href="#m3c18a2ee6f" x="41.670335" y="59.189201" style="stroke: #000000"/>
     <use xlink:href="#m3c18a2ee6f" x="127.105742" y="145.297409" style="stroke: #000000"/>
     <use xlink:href="#m3c18a2ee6f" x="212.541148" y="154.959803" style="stroke: #000000"/>
     <use xlink:href="#m3c18a2ee6f" x="297.976555" y="151.284078" style="stroke: #000000"/>
     <use xlink:href="#m3c18a2ee6f" x="383.411962" y="154.004805" style="stroke: #000000"/>
    </g>
   </g>
   <g id="line2d_13">
    <g clip-path="url(#pfdd03b2df0)">
     <use xlink:href="#m3c18a2ee6f" x="41.670335" y="52.273778" style="stroke: #000000"/>
     <use xlink:href="#m3c18a2ee6f" x="127.105742" y="88.931558" style="stroke: #000000"/>
     <use xlink:href="#m3c18a2ee6f" x="212.541148" y="81.480496" style="stroke: #000000"/>
     <use xlink:href="#m3c18a2ee6f" x="297.976555" y="127.412263" style="stroke: #000000"/>
     <use xlink:href="#m3c18a2ee6f" x="383.411962" y="127.462173" style="stroke: #000000"/>
    </g>
   </g>
   <g id="LineCollection_2">
    <path d="M 63.029187 100.103191 
L 63.029187 26.867064 
" clip-path="url(#pfdd03b2df0)" style="fill: none; stroke: #000000"/>
    <path d="M 148.464593 145.064818 
L 148.464593 85.221612 
" clip-path="url(#pfdd03b2df0)" style="fill: none; stroke: #000000"/>
    <path d="M 233.9 154.129965 
L 233.9 87.125604 
" clip-path="url(#pfdd03b2df0)" style="fill: none; stroke: #000000"/>
    <path d="M 319.335407 158.530418 
L 319.335407 110.148435 
" clip-path="url(#pfdd03b2df0)" style="fill: none; stroke: #000000"/>
    <path d="M 404.770813 154.069584 
L 404.770813 131.939548 
" clip-path="url(#pfdd03b2df0)" style="fill: none; stroke: #000000"/>
   </g>
   <g id="line2d_14">
    <g clip-path="url(#pfdd03b2df0)">
     <use xlink:href="#m3c18a2ee6f" x="63.029187" y="100.103191" style="stroke: #000000"/>
     <use xlink:href="#m3c18a2ee6f" x="148.464593" y="145.064818" style="stroke: #000000"/>
     <use xlink:href="#m3c18a2ee6f" x="233.9" y="154.129965" style="stroke: #000000"/>
     <use xlink:href="#m3c18a2ee6f" x="319.335407" y="158.530418" style="stroke: #000000"/>
     <use xlink:href="#m3c18a2ee6f" x="404.770813" y="154.069584" style="stroke: #000000"/>
    </g>
   </g>
   <g id="line2d_15">
    <g clip-path="url(#pfdd03b2df0)">
     <use xlink:href="#m3c18a2ee6f" x="63.029187" y="26.867064" style="stroke: #000000"/>
     <use xlink:href="#m3c18a2ee6f" x="148.464593" y="85.221612" style="stroke: #000000"/>
     <use xlink:href="#m3c18a2ee6f" x="233.9" y="87.125604" style="stroke: #000000"/>
     <use xlink:href="#m3c18a2ee6f" x="319.335407" y="110.148435" style="stroke: #000000"/>
     <use xlink:href="#m3c18a2ee6f" x="404.770813" y="131.939548" style="stroke: #000000"/>
    </g>
   </g>
   <g id="LineCollection_3">
    <path d="M 84.388038 136.235691 
L 84.388038 107.857804 
" clip-path="url(#pfdd03b2df0)" style="fill: none; stroke: #000000"/>
    <path d="M 169.823445 137.664899 
L 169.823445 87.314538 
" clip-path="url(#pfdd03b2df0)" style="fill: none; stroke: #000000"/>
    <path d="M 255.258852 149.542608 
L 255.258852 103.670582 
" clip-path="url(#pfdd03b2df0)" style="fill: none; stroke: #000000"/>
    <path d="M 340.694258 161.460515 
L 340.694258 123.400121 
" clip-path="url(#pfdd03b2df0)" style="fill: none; stroke: #000000"/>
    <path d="M 426.129665 151.714602 
L 426.129665 135.364936 
" clip-path="url(#pfdd03b2df0)" style="fill: none; stroke: #000000"/>
   </g>
   <g id="line2d_16">
    <g clip-path="url(#pfdd03b2df0)">
     <use xlink:href="#m3c18a2ee6f" x="84.388038" y="136.235691" style="stroke: #000000"/>
     <use xlink:href="#m3c18a2ee6f" x="169.823445" y="137.664899" style="stroke: #000000"/>
     <use xlink:href="#m3c18a2ee6f" x="255.258852" y="149.542608" style="stroke: #000000"/>
     <use xlink:href="#m3c18a2ee6f" x="340.694258" y="161.460515" style="stroke: #000000"/>
     <use xlink:href="#m3c18a2ee6f" x="426.129665" y="151.714602" style="stroke: #000000"/>
    </g>
   </g>
   <g id="line2d_17">
    <g clip-path="url(#pfdd03b2df0)">
     <use xlink:href="#m3c18a2ee6f" x="84.388038" y="107.857804" style="stroke: #000000"/>
     <use xlink:href="#m3c18a2ee6f" x="169.823445" y="87.314538" style="stroke: #000000"/>
     <use xlink:href="#m3c18a2ee6f" x="255.258852" y="103.670582" style="stroke: #000000"/>
     <use xlink:href="#m3c18a2ee6f" x="340.694258" y="123.400121" style="stroke: #000000"/>
     <use xlink:href="#m3c18a2ee6f" x="426.129665" y="135.364936" style="stroke: #000000"/>
    </g>
   </g>
   <g id="patch_18">
    <path d="M 10.7 173.52 
L 10.7 7.2 
" style="fill: none; stroke: #000000; stroke-width: 0.8; stroke-linejoin: miter; stroke-linecap: square"/>
   </g>
   <g id="patch_19">
    <path d="M 457.1 173.52 
L 457.1 7.2 
" style="fill: none; stroke: #000000; stroke-width: 0.8; stroke-linejoin: miter; stroke-linecap: square"/>
   </g>
   <g id="patch_20">
    <path d="M 10.7 173.52 
L 457.1 173.52 
" style="fill: none; stroke: #000000; stroke-width: 0.8; stroke-linejoin: miter; stroke-linecap: square"/>
   </g>
   <g id="patch_21">
    <path d="M 10.7 7.2 
L 457.1 7.2 
" style="fill: none; stroke: #000000; stroke-width: 0.8; stroke-linejoin: miter; stroke-linecap: square"/>
   </g>
   <g id="PathCollection_16">
    <defs>
     <path id="ma1d3c30981" d="M 0 1.414214 
C 0.375054 1.414214 0.734797 1.265203 1 1 
C 1.265203 0.734797 1.414214 0.375054 1.414214 0 
C 1.414214 -0.375054 1.265203 -0.734797 1 -1 
C 0.734797 -1.265203 0.375054 -1.414214 0 -1.414214 
C -0.375054 -1.414214 -0.734797 -1.265203 -1 -1 
C -1.265203 -0.734797 -1.414214 -0.375054 -1.414214 0 
C -1.414214 0.375054 -1.265203 0.734797 -1 1 
C -0.734797 1.265203 -0.375054 1.414214 0 1.414214 
z
" style="stroke: #000000"/>
    </defs>
    <g clip-path="url(#pfdd03b2df0)">
     <use xlink:href="#ma1d3c30981" x="41.670335" y="55.73149" style="stroke: #000000"/>
     <use xlink:href="#ma1d3c30981" x="127.105742" y="117.114483" style="stroke: #000000"/>
     <use xlink:href="#ma1d3c30981" x="212.541148" y="118.22015" style="stroke: #000000"/>
     <use xlink:href="#ma1d3c30981" x="297.976555" y="139.34817" style="stroke: #000000"/>
     <use xlink:href="#ma1d3c30981" x="383.411962" y="140.733489" style="stroke: #000000"/>
    </g>
   </g>
   <g id="PathCollection_17">
    <g clip-path="url(#pfdd03b2df0)">
     <use xlink:href="#ma1d3c30981" x="63.029187" y="63.485128" style="stroke: #000000"/>
     <use xlink:href="#ma1d3c30981" x="148.464593" y="115.143215" style="stroke: #000000"/>
     <use xlink:href="#ma1d3c30981" x="233.9" y="120.627784" style="stroke: #000000"/>
     <use xlink:href="#ma1d3c30981" x="319.335407" y="134.339426" style="stroke: #000000"/>
     <use xlink:href="#ma1d3c30981" x="404.770813" y="143.004566" style="stroke: #000000"/>
    </g>
   </g>
   <g id="PathCollection_18">
    <g clip-path="url(#pfdd03b2df0)">
     <use xlink:href="#ma1d3c30981" x="84.388038" y="122.046747" style="stroke: #000000"/>
     <use xlink:href="#ma1d3c30981" x="169.823445" y="112.489719" style="stroke: #000000"/>
     <use xlink:href="#ma1d3c30981" x="255.258852" y="126.606595" style="stroke: #000000"/>
     <use xlink:href="#ma1d3c30981" x="340.694258" y="142.430318" style="stroke: #000000"/>
     <use xlink:href="#ma1d3c30981" x="426.129665" y="143.539769" style="stroke: #000000"/>
    </g>
   </g>
  </g>
 </g>
 <defs>
  <clipPath id="pfdd03b2df0">
   <rect x="10.7" y="7.2" width="446.4" height="166.32"/>
  </clipPath>
 </defs>
</svg>
