<?xml version="1.0" encoding="utf-8" standalone="no"?>
<!DOCTYPE svg PUBLIC "-//W3C//DTD SVG 1.1//EN"
  "http://www.w3.org/Graphics/SVG/1.1/DTD/svg11.dtd">
<svg xmlns:xlink="http://www.w3.org/1999/xlink" width="512.071875pt" height="220.03475pt" viewBox="0 0 512.071875 220.03475" xmlns="http://www.w3.org/2000/svg" version="1.1">
 <metadata>
  <rdf:RDF xmlns:dc="http://purl.org/dc/elements/1.1/" xmlns:cc="http://creativecommons.org/ns#" xmlns:rdf="http://www.w3.org/1999/02/22-rdf-syntax-ns#">
   <cc:Work>
    <dc:type rdf:resource="http://purl.org/dc/dcmitype/StillImage"/>
    <dc:date>2024-11-09T22:49:46.162439</dc:date>
    <dc:format>image/svg+xml</dc:format>
    <dc:creator>
     <cc:Agent>
      <dc:title>Matplotlib v3.8.2, https://matplotlib.org/</dc:title>
     </cc:Agent>
    </dc:creator>
   </cc:Work>
  </rdf:RDF>
 </metadata>
 <defs>
  <style type="text/css">*{stroke-linejoin: round; stroke-linecap: butt}</style>
 </defs>
 <g id="figure_1">
  <g id="patch_1">
   <path d="M 0 220.03475 
L 512.071875 220.03475 
L 512.071875 0 
L 0 0 
z
" style="fill: #ffffff"/>
  </g>
  <g id="axes_1">
   <g id="patch_2">
    <path d="M 58.471875 192.285375 
L 504.871875 192.285375 
L 504.871875 25.965375 
L 58.471875 25.965375 
z
" style="fill: #ffffff"/>
   </g>
   <g id="patch_3">
    <path d="M 78.762784 192.285375 
L 100.121636 192.285375 
L 100.121636 74.496865 
L 78.762784 74.496865 
z
" clip-path="url(#p17c46d1292)" style="fill: #a9bed9"/>
   </g>
   <g id="patch_4">
    <path d="M 164.198191 192.285375 
L 185.557042 192.285375 
L 185.557042 135.879858 
L 164.198191 135.879858 
z
" clip-path="url(#p17c46d1292)" style="fill: #a9bed9"/>
   </g>
   <g id="patch_5">
    <path d="M 249.633597 192.285375 
L 270.992449 192.285375 
L 270.992449 136.985525 
L 249.633597 136.985525 
z
" clip-path="url(#p17c46d1292)" style="fill: #a9bed9"/>
   </g>
   <g id="patch_6">
    <path d="M 335.069004 192.285375 
L 356.427856 192.285375 
L 356.427856 158.113545 
L 335.069004 158.113545 
z
" clip-path="url(#p17c46d1292)" style="fill: #a9bed9"/>
   </g>
   <g id="patch_7">
    <path d="M 420.504411 192.285375 
L 441.863263 192.285375 
L 441.863263 159.498864 
L 420.504411 159.498864 
z
" clip-path="url(#p17c46d1292)" style="fill: #a9bed9"/>
   </g>
   <g id="patch_8">
    <path d="M 100.121636 192.285375 
L 121.480487 192.285375 
L 121.480487 82.250503 
L 100.121636 82.250503 
z
" clip-path="url(#p17c46d1292)" style="fill: #e3f0f6"/>
   </g>
   <g id="patch_9">
    <path d="M 185.557042 192.285375 
L 206.915894 192.285375 
L 206.915894 133.90859 
L 185.557042 133.90859 
z
" clip-path="url(#p17c46d1292)" style="fill: #e3f0f6"/>
   </g>
   <g id="patch_10">
    <path d="M 270.992449 192.285375 
L 292.351301 192.285375 
L 292.351301 139.393159 
L 270.992449 139.393159 
z
" clip-path="url(#p17c46d1292)" style="fill: #e3f0f6"/>
   </g>
   <g id="patch_11">
    <path d="M 356.427856 192.285375 
L 377.786708 192.285375 
L 377.786708 153.104801 
L 356.427856 153.104801 
z
" clip-path="url(#p17c46d1292)" style="fill: #e3f0f6"/>
   </g>
   <g id="patch_12">
    <path d="M 441.863263 192.285375 
L 463.222114 192.285375 
L 463.222114 161.769941 
L 441.863263 161.769941 
z
" clip-path="url(#p17c46d1292)" style="fill: #e3f0f6"/>
   </g>
   <g id="patch_13">
    <path d="M 121.480487 192.285375 
L 142.839339 192.285375 
L 142.839339 140.812122 
L 121.480487 140.812122 
z
" clip-path="url(#p17c46d1292)" style="fill: #e8a19d"/>
   </g>
   <g id="patch_14">
    <path d="M 206.915894 192.285375 
L 228.274746 192.285375 
L 228.274746 131.255094 
L 206.915894 131.255094 
z
" clip-path="url(#p17c46d1292)" style="fill: #e8a19d"/>
   </g>
   <g id="patch_15">
    <path d="M 292.351301 192.285375 
L 313.710153 192.285375 
L 313.710153 145.37197 
L 292.351301 145.37197 
z
" clip-path="url(#p17c46d1292)" style="fill: #e8a19d"/>
   </g>
   <g id="patch_16">
    <path d="M 377.786708 192.285375 
L 399.145559 192.285375 
L 399.145559 161.195693 
L 377.786708 161.195693 
z
" clip-path="url(#p17c46d1292)" style="fill: #e8a19d"/>
   </g>
   <g id="patch_17">
    <path d="M 463.222114 192.285375 
L 484.580966 192.285375 
L 484.580966 162.305144 
L 463.222114 162.305144 
z
" clip-path="url(#p17c46d1292)" style="fill: #e8a19d"/>
   </g>
   <g id="matplotlib.axis_1">
    <g id="xtick_1">
     <g id="line2d_1">
      <defs>
       <path id="mcf022904a0" d="M 0 0 
L 0 3.5 
" style="stroke: #000000; stroke-width: 0.8"/>
      </defs>
      <g>
       <use xlink:href="#mcf022904a0" x="110.801062" y="192.285375" style="stroke: #000000; stroke-width: 0.8"/>
      </g>
     </g>
     <g id="text_1">
      <!-- 1 -->
      <g transform="translate(106.347312 209.923188) scale(0.14 -0.14)">
       <defs>
        <path id="DejaVuSans-31" d="M 794 531 
L 1825 531 
L 1825 4091 
L 703 3866 
L 703 4441 
L 1819 4666 
L 2450 4666 
L 2450 531 
L 3481 531 
L 3481 0 
L 794 0 
L 794 531 
z
" transform="scale(0.015625)"/>
       </defs>
       <use xlink:href="#DejaVuSans-31"/>
      </g>
     </g>
    </g>
    <g id="xtick_2">
     <g id="line2d_2">
      <g>
       <use xlink:href="#mcf022904a0" x="196.236468" y="192.285375" style="stroke: #000000; stroke-width: 0.8"/>
      </g>
     </g>
     <g id="text_2">
      <!-- 2 -->
      <g transform="translate(191.782718 209.923188) scale(0.14 -0.14)">
       <defs>
        <path id="DejaVuSans-32" d="M 1228 531 
L 3431 531 
L 3431 0 
L 469 0 
L 469 531 
Q 828 903 1448 1529 
Q 2069 2156 2228 2338 
Q 2531 2678 2651 2914 
Q 2772 3150 2772 3378 
Q 2772 3750 2511 3984 
Q 2250 4219 1831 4219 
Q 1534 4219 1204 4116 
Q 875 4013 500 3803 
L 500 4441 
Q 881 4594 1212 4672 
Q 1544 4750 1819 4750 
Q 2544 4750 2975 4387 
Q 3406 4025 3406 3419 
Q 3406 3131 3298 2873 
Q 3191 2616 2906 2266 
Q 2828 2175 2409 1742 
Q 1991 1309 1228 531 
z
" transform="scale(0.015625)"/>
       </defs>
       <use xlink:href="#DejaVuSans-32"/>
      </g>
     </g>
    </g>
    <g id="xtick_3">
     <g id="line2d_3">
      <g>
       <use xlink:href="#mcf022904a0" x="281.671875" y="192.285375" style="stroke: #000000; stroke-width: 0.8"/>
      </g>
     </g>
     <g id="text_3">
      <!-- 4 -->
      <g transform="translate(277.218125 209.923188) scale(0.14 -0.14)">
       <defs>
        <path id="DejaVuSans-34" d="M 2419 4116 
L 825 1625 
L 2419 1625 
L 2419 4116 
z
M 2253 4666 
L 3047 4666 
L 3047 1625 
L 3713 1625 
L 3713 1100 
L 3047 1100 
L 3047 0 
L 2419 0 
L 2419 1100 
L 313 1100 
L 313 1709 
L 2253 4666 
z
" transform="scale(0.015625)"/>
       </defs>
       <use xlink:href="#DejaVuSans-34"/>
      </g>
     </g>
    </g>
    <g id="xtick_4">
     <g id="line2d_4">
      <g>
       <use xlink:href="#mcf022904a0" x="367.107282" y="192.285375" style="stroke: #000000; stroke-width: 0.8"/>
      </g>
     </g>
     <g id="text_4">
      <!-- 8 -->
      <g transform="translate(362.653532 209.923188) scale(0.14 -0.14)">
       <defs>
        <path id="DejaVuSans-38" d="M 2034 2216 
Q 1584 2216 1326 1975 
Q 1069 1734 1069 1313 
Q 1069 891 1326 650 
Q 1584 409 2034 409 
Q 2484 409 2743 651 
Q 3003 894 3003 1313 
Q 3003 1734 2745 1975 
Q 2488 2216 2034 2216 
z
M 1403 2484 
Q 997 2584 770 2862 
Q 544 3141 544 3541 
Q 544 4100 942 4425 
Q 1341 4750 2034 4750 
Q 2731 4750 3128 4425 
Q 3525 4100 3525 3541 
Q 3525 3141 3298 2862 
Q 3072 2584 2669 2484 
Q 3125 2378 3379 2068 
Q 3634 1759 3634 1313 
Q 3634 634 3220 271 
Q 2806 -91 2034 -91 
Q 1263 -91 848 271 
Q 434 634 434 1313 
Q 434 1759 690 2068 
Q 947 2378 1403 2484 
z
M 1172 3481 
Q 1172 3119 1398 2916 
Q 1625 2713 2034 2713 
Q 2441 2713 2670 2916 
Q 2900 3119 2900 3481 
Q 2900 3844 2670 4047 
Q 2441 4250 2034 4250 
Q 1625 4250 1398 4047 
Q 1172 3844 1172 3481 
z
" transform="scale(0.015625)"/>
       </defs>
       <use xlink:href="#DejaVuSans-38"/>
      </g>
     </g>
    </g>
    <g id="xtick_5">
     <g id="line2d_5">
      <g>
       <use xlink:href="#mcf022904a0" x="452.542688" y="192.285375" style="stroke: #000000; stroke-width: 0.8"/>
      </g>
     </g>
     <g id="text_5">
      <!-- 16 -->
      <g transform="translate(443.635188 209.923188) scale(0.14 -0.14)">
       <defs>
        <path id="DejaVuSans-36" d="M 2113 2584 
Q 1688 2584 1439 2293 
Q 1191 2003 1191 1497 
Q 1191 994 1439 701 
Q 1688 409 2113 409 
Q 2538 409 2786 701 
Q 3034 994 3034 1497 
Q 3034 2003 2786 2293 
Q 2538 2584 2113 2584 
z
M 3366 4563 
L 3366 3988 
Q 3128 4100 2886 4159 
Q 2644 4219 2406 4219 
Q 1781 4219 1451 3797 
Q 1122 3375 1075 2522 
Q 1259 2794 1537 2939 
Q 1816 3084 2150 3084 
Q 2853 3084 3261 2657 
Q 3669 2231 3669 1497 
Q 3669 778 3244 343 
Q 2819 -91 2113 -91 
Q 1303 -91 875 529 
Q 447 1150 447 2328 
Q 447 3434 972 4092 
Q 1497 4750 2381 4750 
Q 2619 4750 2861 4703 
Q 3103 4656 3366 4563 
z
" transform="scale(0.015625)"/>
       </defs>
       <use xlink:href="#DejaVuSans-31"/>
       <use xlink:href="#DejaVuSans-36" x="63.623047"/>
      </g>
     </g>
    </g>
   </g>
   <g id="matplotlib.axis_2">
    <g id="ytick_1">
     <g id="line2d_6">
      <defs>
       <path id="m4d79606c9d" d="M 0 0 
L -3.5 0 
" style="stroke: #000000; stroke-width: 0.8"/>
      </defs>
      <g>
       <use xlink:href="#m4d79606c9d" x="58.471875" y="192.285375" style="stroke: #000000; stroke-width: 0.8"/>
      </g>
     </g>
     <g id="text_6">
      <!-- 0 -->
      <g transform="translate(42.564375 197.604281) scale(0.14 -0.14)">
       <defs>
        <path id="DejaVuSans-30" d="M 2034 4250 
Q 1547 4250 1301 3770 
Q 1056 3291 1056 2328 
Q 1056 1369 1301 889 
Q 1547 409 2034 409 
Q 2525 409 2770 889 
Q 3016 1369 3016 2328 
Q 3016 3291 2770 3770 
Q 2525 4250 2034 4250 
z
M 2034 4750 
Q 2819 4750 3233 4129 
Q 3647 3509 3647 2328 
Q 3647 1150 3233 529 
Q 2819 -91 2034 -91 
Q 1250 -91 836 529 
Q 422 1150 422 2328 
Q 422 3509 836 4129 
Q 1250 4750 2034 4750 
z
" transform="scale(0.015625)"/>
       </defs>
       <use xlink:href="#DejaVuSans-30"/>
      </g>
     </g>
    </g>
    <g id="ytick_2">
     <g id="line2d_7">
      <g>
       <use xlink:href="#m4d79606c9d" x="58.471875" y="159.021375" style="stroke: #000000; stroke-width: 0.8"/>
      </g>
     </g>
     <g id="text_7">
      <!-- 25 -->
      <g transform="translate(33.656875 164.340281) scale(0.14 -0.14)">
       <defs>
        <path id="DejaVuSans-35" d="M 691 4666 
L 3169 4666 
L 3169 4134 
L 1269 4134 
L 1269 2991 
Q 1406 3038 1543 3061 
Q 1681 3084 1819 3084 
Q 2600 3084 3056 2656 
Q 3513 2228 3513 1497 
Q 3513 744 3044 326 
Q 2575 -91 1722 -91 
Q 1428 -91 1123 -41 
Q 819 9 494 109 
L 494 744 
Q 775 591 1075 516 
Q 1375 441 1709 441 
Q 2250 441 2565 725 
Q 2881 1009 2881 1497 
Q 2881 1984 2565 2268 
Q 2250 2553 1709 2553 
Q 1456 2553 1204 2497 
Q 953 2441 691 2322 
L 691 4666 
z
" transform="scale(0.015625)"/>
       </defs>
       <use xlink:href="#DejaVuSans-32"/>
       <use xlink:href="#DejaVuSans-35" x="63.623047"/>
      </g>
     </g>
    </g>
    <g id="ytick_3">
     <g id="line2d_8">
      <g>
       <use xlink:href="#m4d79606c9d" x="58.471875" y="125.757375" style="stroke: #000000; stroke-width: 0.8"/>
      </g>
     </g>
     <g id="text_8">
      <!-- 50 -->
      <g transform="translate(33.656875 131.076281) scale(0.14 -0.14)">
       <use xlink:href="#DejaVuSans-35"/>
       <use xlink:href="#DejaVuSans-30" x="63.623047"/>
      </g>
     </g>
    </g>
    <g id="ytick_4">
     <g id="line2d_9">
      <g>
       <use xlink:href="#m4d79606c9d" x="58.471875" y="92.493375" style="stroke: #000000; stroke-width: 0.8"/>
      </g>
     </g>
     <g id="text_9">
      <!-- 75 -->
      <g transform="translate(33.656875 97.812281) scale(0.14 -0.14)">
       <defs>
        <path id="DejaVuSans-37" d="M 525 4666 
L 3525 4666 
L 3525 4397 
L 1831 0 
L 1172 0 
L 2766 4134 
L 525 4134 
L 525 4666 
z
" transform="scale(0.015625)"/>
       </defs>
       <use xlink:href="#DejaVuSans-37"/>
       <use xlink:href="#DejaVuSans-35" x="63.623047"/>
      </g>
     </g>
    </g>
    <g id="ytick_5">
     <g id="line2d_10">
      <g>
       <use xlink:href="#m4d79606c9d" x="58.471875" y="59.229375" style="stroke: #000000; stroke-width: 0.8"/>
      </g>
     </g>
     <g id="text_10">
      <!-- 100 -->
      <g transform="translate(24.749375 64.548281) scale(0.14 -0.14)">
       <use xlink:href="#DejaVuSans-31"/>
       <use xlink:href="#DejaVuSans-30" x="63.623047"/>
       <use xlink:href="#DejaVuSans-30" x="127.246094"/>
      </g>
     </g>
    </g>
    <g id="ytick_6">
     <g id="line2d_11">
      <g>
       <use xlink:href="#m4d79606c9d" x="58.471875" y="25.965375" style="stroke: #000000; stroke-width: 0.8"/>
      </g>
     </g>
     <g id="text_11">
      <!-- 125 -->
      <g transform="translate(24.749375 31.284281) scale(0.14 -0.14)">
       <use xlink:href="#DejaVuSans-31"/>
       <use xlink:href="#DejaVuSans-32" x="63.623047"/>
       <use xlink:href="#DejaVuSans-35" x="127.246094"/>
      </g>
     </g>
    </g>
    <g id="text_12">
     <!-- MAPE (%) -->
     <g transform="translate(17.837813 142.935375) rotate(-90) scale(0.14 -0.14)">
      <defs>
       <path id="DejaVuSans-4d" d="M 628 4666 
L 1569 4666 
L 2759 1491 
L 3956 4666 
L 4897 4666 
L 4897 0 
L 4281 0 
L 4281 4097 
L 3078 897 
L 2444 897 
L 1241 4097 
L 1241 0 
L 628 0 
L 628 4666 
z
" transform="scale(0.015625)"/>
       <path id="DejaVuSans-41" d="M 2188 4044 
L 1331 1722 
L 3047 1722 
L 2188 4044 
z
M 1831 4666 
L 2547 4666 
L 4325 0 
L 3669 0 
L 3244 1197 
L 1141 1197 
L 716 0 
L 50 0 
L 1831 4666 
z
" transform="scale(0.015625)"/>
       <path id="DejaVuSans-50" d="M 1259 4147 
L 1259 2394 
L 2053 2394 
Q 2494 2394 2734 2622 
Q 2975 2850 2975 3272 
Q 2975 3691 2734 3919 
Q 2494 4147 2053 4147 
L 1259 4147 
z
M 628 4666 
L 2053 4666 
Q 2838 4666 3239 4311 
Q 3641 3956 3641 3272 
Q 3641 2581 3239 2228 
Q 2838 1875 2053 1875 
L 1259 1875 
L 1259 0 
L 628 0 
L 628 4666 
z
" transform="scale(0.015625)"/>
       <path id="DejaVuSans-45" d="M 628 4666 
L 3578 4666 
L 3578 4134 
L 1259 4134 
L 1259 2753 
L 3481 2753 
L 3481 2222 
L 1259 2222 
L 1259 531 
L 3634 531 
L 3634 0 
L 628 0 
L 628 4666 
z
" transform="scale(0.015625)"/>
       <path id="DejaVuSans-20" transform="scale(0.015625)"/>
       <path id="DejaVuSans-28" d="M 1984 4856 
Q 1566 4138 1362 3434 
Q 1159 2731 1159 2009 
Q 1159 1288 1364 580 
Q 1569 -128 1984 -844 
L 1484 -844 
Q 1016 -109 783 600 
Q 550 1309 550 2009 
Q 550 2706 781 3412 
Q 1013 4119 1484 4856 
L 1984 4856 
z
" transform="scale(0.015625)"/>
       <path id="DejaVuSans-25" d="M 4653 2053 
Q 4381 2053 4226 1822 
Q 4072 1591 4072 1178 
Q 4072 772 4226 539 
Q 4381 306 4653 306 
Q 4919 306 5073 539 
Q 5228 772 5228 1178 
Q 5228 1588 5073 1820 
Q 4919 2053 4653 2053 
z
M 4653 2450 
Q 5147 2450 5437 2106 
Q 5728 1763 5728 1178 
Q 5728 594 5436 251 
Q 5144 -91 4653 -91 
Q 4153 -91 3862 251 
Q 3572 594 3572 1178 
Q 3572 1766 3864 2108 
Q 4156 2450 4653 2450 
z
M 1428 4353 
Q 1159 4353 1004 4120 
Q 850 3888 850 3481 
Q 850 3069 1003 2837 
Q 1156 2606 1428 2606 
Q 1700 2606 1854 2837 
Q 2009 3069 2009 3481 
Q 2009 3884 1853 4118 
Q 1697 4353 1428 4353 
z
M 4250 4750 
L 4750 4750 
L 1831 -91 
L 1331 -91 
L 4250 4750 
z
M 1428 4750 
Q 1922 4750 2215 4408 
Q 2509 4066 2509 3481 
Q 2509 2891 2217 2550 
Q 1925 2209 1428 2209 
Q 931 2209 642 2551 
Q 353 2894 353 3481 
Q 353 4063 643 4406 
Q 934 4750 1428 4750 
z
" transform="scale(0.015625)"/>
       <path id="DejaVuSans-29" d="M 513 4856 
L 1013 4856 
Q 1481 4119 1714 3412 
Q 1947 2706 1947 2009 
Q 1947 1309 1714 600 
Q 1481 -109 1013 -844 
L 513 -844 
Q 928 -128 1133 580 
Q 1338 1288 1338 2009 
Q 1338 2731 1133 3434 
Q 928 4138 513 4856 
z
" transform="scale(0.015625)"/>
      </defs>
      <use xlink:href="#DejaVuSans-4d"/>
      <use xlink:href="#DejaVuSans-41" x="86.279297"/>
      <use xlink:href="#DejaVuSans-50" x="154.6875"/>
      <use xlink:href="#DejaVuSans-45" x="214.990234"/>
      <use xlink:href="#DejaVuSans-20" x="278.173828"/>
      <use xlink:href="#DejaVuSans-28" x="309.960938"/>
      <use xlink:href="#DejaVuSans-25" x="348.974609"/>
      <use xlink:href="#DejaVuSans-29" x="443.994141"/>
     </g>
    </g>
   </g>
   <g id="PathCollection_1">
    <defs>
     <path id="meafb52200f" d="M 0 3 
C 0.795609 3 1.55874 2.683901 2.12132 2.12132 
C 2.683901 1.55874 3 0.795609 3 0 
C 3 -0.795609 2.683901 -1.55874 2.12132 -2.12132 
C 1.55874 -2.683901 0.795609 -3 0 -3 
C -0.795609 -3 -1.55874 -2.683901 -2.12132 -2.12132 
C -2.683901 -1.55874 -3 -0.795609 -3 0 
C -3 0.795609 -2.683901 1.55874 -2.12132 2.12132 
C -1.55874 2.683901 -0.795609 3 0 3 
z
" style="stroke: #7794b4"/>
    </defs>
    <g clip-path="url(#p17c46d1292)">
     <use xlink:href="#meafb52200f" x="93.54746" y="72.705022" style="fill: #7794b4; stroke: #7794b4"/>
     <use xlink:href="#meafb52200f" x="93.331405" y="74.261337" style="fill: #7794b4; stroke: #7794b4"/>
     <use xlink:href="#meafb52200f" x="92.839673" y="78.8016" style="fill: #7794b4; stroke: #7794b4"/>
     <use xlink:href="#meafb52200f" x="87.316804" y="75.768855" style="fill: #7794b4; stroke: #7794b4"/>
     <use xlink:href="#meafb52200f" x="86.191688" y="80.077579" style="fill: #7794b4; stroke: #7794b4"/>
     <use xlink:href="#meafb52200f" x="89.985673" y="72.935783" style="fill: #7794b4; stroke: #7794b4"/>
     <use xlink:href="#meafb52200f" x="93.159797" y="68.475732" style="fill: #7794b4; stroke: #7794b4"/>
     <use xlink:href="#meafb52200f" x="84.376074" y="72.949003" style="fill: #7794b4; stroke: #7794b4"/>
    </g>
   </g>
   <g id="PathCollection_2">
    <defs>
     <path id="me7bab2ebc9" d="M 0 3 
C 0.795609 3 1.55874 2.683901 2.12132 2.12132 
C 2.683901 1.55874 3 0.795609 3 0 
C 3 -0.795609 2.683901 -1.55874 2.12132 -2.12132 
C 1.55874 -2.683901 0.795609 -3 0 -3 
C -0.795609 -3 -1.55874 -2.683901 -2.12132 -2.12132 
C -2.683901 -1.55874 -3 -0.795609 -3 0 
C -3 0.795609 -2.683901 1.55874 -2.12132 2.12132 
C -1.55874 2.683901 -0.795609 3 0 3 
z
" style="stroke: #b0c8cf"/>
    </defs>
    <g clip-path="url(#p17c46d1292)">
     <use xlink:href="#me7bab2ebc9" x="110.117781" y="59.36921" style="fill: #b0c8cf; stroke: #b0c8cf"/>
     <use xlink:href="#me7bab2ebc9" x="108.663919" y="149.927098" style="fill: #b0c8cf; stroke: #b0c8cf"/>
     <use xlink:href="#me7bab2ebc9" x="113.906793" y="59.352968" style="fill: #b0c8cf; stroke: #b0c8cf"/>
     <use xlink:href="#me7bab2ebc9" x="105.124466" y="59.436479" style="fill: #b0c8cf; stroke: #b0c8cf"/>
     <use xlink:href="#me7bab2ebc9" x="109.500618" y="59.297207" style="fill: #b0c8cf; stroke: #b0c8cf"/>
     <use xlink:href="#me7bab2ebc9" x="113.357867" y="129.013398" style="fill: #b0c8cf; stroke: #b0c8cf"/>
     <use xlink:href="#me7bab2ebc9" x="106.849344" y="59.357171" style="fill: #b0c8cf; stroke: #b0c8cf"/>
    </g>
   </g>
   <g id="PathCollection_3">
    <defs>
     <path id="m3e7af437f7" d="M 0 3 
C 0.795609 3 1.55874 2.683901 2.12132 2.12132 
C 2.683901 1.55874 3 0.795609 3 0 
C 3 -0.795609 2.683901 -1.55874 2.12132 -2.12132 
C 1.55874 -2.683901 0.795609 -3 0 -3 
C -0.795609 -3 -1.55874 -2.683901 -2.12132 -2.12132 
C -2.683901 -1.55874 -3 -0.795609 -3 0 
C -3 0.795609 -2.683901 1.55874 -2.12132 2.12132 
C -1.55874 2.683901 -0.795609 3 0 3 
z
" style="stroke: #b5706b"/>
    </defs>
    <g clip-path="url(#p17c46d1292)">
     <use xlink:href="#m3e7af437f7" x="131.933321" y="155.125007" style="fill: #b5706b; stroke: #b5706b"/>
     <use xlink:href="#m3e7af437f7" x="137.282833" y="151.057961" style="fill: #b5706b; stroke: #b5706b"/>
     <use xlink:href="#m3e7af437f7" x="133.561232" y="138.659711" style="fill: #b5706b; stroke: #b5706b"/>
     <use xlink:href="#m3e7af437f7" x="134.576483" y="136.872531" style="fill: #b5706b; stroke: #b5706b"/>
     <use xlink:href="#m3e7af437f7" x="126.481468" y="146.006894" style="fill: #b5706b; stroke: #b5706b"/>
     <use xlink:href="#m3e7af437f7" x="138.085306" y="154.862626" style="fill: #b5706b; stroke: #b5706b"/>
     <use xlink:href="#m3e7af437f7" x="129.671538" y="108.819914" style="fill: #b5706b; stroke: #b5706b"/>
     <use xlink:href="#m3e7af437f7" x="136.952835" y="135.092322" style="fill: #b5706b; stroke: #b5706b"/>
    </g>
   </g>
   <g id="PathCollection_4">
    <g clip-path="url(#p17c46d1292)">
     <use xlink:href="#meafb52200f" x="173.987437" y="121.886627" style="fill: #7794b4; stroke: #7794b4"/>
     <use xlink:href="#meafb52200f" x="173.882072" y="152.753766" style="fill: #7794b4; stroke: #7794b4"/>
     <use xlink:href="#meafb52200f" x="178.215874" y="135.523771" style="fill: #7794b4; stroke: #7794b4"/>
     <use xlink:href="#meafb52200f" x="169.830678" y="151.907824" style="fill: #7794b4; stroke: #7794b4"/>
     <use xlink:href="#meafb52200f" x="170.238962" y="156.558245" style="fill: #7794b4; stroke: #7794b4"/>
     <use xlink:href="#meafb52200f" x="180.749318" y="150.204302" style="fill: #7794b4; stroke: #7794b4"/>
     <use xlink:href="#meafb52200f" x="172.061281" y="66.972711" style="fill: #7794b4; stroke: #7794b4"/>
     <use xlink:href="#meafb52200f" x="179.878669" y="151.231636" style="fill: #7794b4; stroke: #7794b4"/>
    </g>
   </g>
   <g id="PathCollection_5">
    <g clip-path="url(#p17c46d1292)">
     <use xlink:href="#me7bab2ebc9" x="190.724103" y="139.264292" style="fill: #b0c8cf; stroke: #b0c8cf"/>
     <use xlink:href="#me7bab2ebc9" x="191.626449" y="156.254069" style="fill: #b0c8cf; stroke: #b0c8cf"/>
     <use xlink:href="#me7bab2ebc9" x="196.758075" y="150.734394" style="fill: #b0c8cf; stroke: #b0c8cf"/>
     <use xlink:href="#me7bab2ebc9" x="193.941952" y="154.708813" style="fill: #b0c8cf; stroke: #b0c8cf"/>
     <use xlink:href="#me7bab2ebc9" x="190.402198" y="99.230393" style="fill: #b0c8cf; stroke: #b0c8cf"/>
     <use xlink:href="#me7bab2ebc9" x="190.304057" y="150.461818" style="fill: #b0c8cf; stroke: #b0c8cf"/>
     <use xlink:href="#me7bab2ebc9" x="199.386285" y="69.515034" style="fill: #b0c8cf; stroke: #b0c8cf"/>
     <use xlink:href="#me7bab2ebc9" x="196.589284" y="151.099883" style="fill: #b0c8cf; stroke: #b0c8cf"/>
    </g>
   </g>
   <g id="PathCollection_6">
    <g clip-path="url(#p17c46d1292)">
     <use xlink:href="#m3e7af437f7" x="222.382618" y="132.260309" style="fill: #b5706b; stroke: #b5706b"/>
     <use xlink:href="#m3e7af437f7" x="212.641253" y="157.579829" style="fill: #b5706b; stroke: #b5706b"/>
     <use xlink:href="#m3e7af437f7" x="219.612351" y="136.117821" style="fill: #b5706b; stroke: #b5706b"/>
     <use xlink:href="#m3e7af437f7" x="214.779679" y="153.405936" style="fill: #b5706b; stroke: #b5706b"/>
     <use xlink:href="#m3e7af437f7" x="212.972964" y="102.14842" style="fill: #b5706b; stroke: #b5706b"/>
     <use xlink:href="#m3e7af437f7" x="213.005328" y="139.314129" style="fill: #b5706b; stroke: #b5706b"/>
     <use xlink:href="#m3e7af437f7" x="218.139223" y="79.998224" style="fill: #b5706b; stroke: #b5706b"/>
     <use xlink:href="#m3e7af437f7" x="216.304778" y="149.216062" style="fill: #b5706b; stroke: #b5706b"/>
    </g>
   </g>
   <g id="PathCollection_7">
    <g clip-path="url(#p17c46d1292)">
     <use xlink:href="#meafb52200f" x="255.980073" y="164.516514" style="fill: #7794b4; stroke: #7794b4"/>
     <use xlink:href="#meafb52200f" x="265.811356" y="138.845755" style="fill: #7794b4; stroke: #7794b4"/>
     <use xlink:href="#meafb52200f" x="263.858519" y="151.378601" style="fill: #7794b4; stroke: #7794b4"/>
     <use xlink:href="#meafb52200f" x="262.711526" y="143.44252" style="fill: #7794b4; stroke: #7794b4"/>
     <use xlink:href="#meafb52200f" x="254.830048" y="143.854427" style="fill: #7794b4; stroke: #7794b4"/>
     <use xlink:href="#meafb52200f" x="265.531835" y="152.373443" style="fill: #7794b4; stroke: #7794b4"/>
     <use xlink:href="#meafb52200f" x="259.255549" y="42.101195" style="fill: #7794b4; stroke: #7794b4"/>
     <use xlink:href="#meafb52200f" x="254.046945" y="159.371704" style="fill: #7794b4; stroke: #7794b4"/>
    </g>
   </g>
   <g id="PathCollection_8">
    <g clip-path="url(#p17c46d1292)">
     <use xlink:href="#me7bab2ebc9" x="281.520448" y="168.873221" style="fill: #b0c8cf; stroke: #b0c8cf"/>
     <use xlink:href="#me7bab2ebc9" x="284.426948" y="137.92361" style="fill: #b0c8cf; stroke: #b0c8cf"/>
     <use xlink:href="#me7bab2ebc9" x="284.663428" y="157.590476" style="fill: #b0c8cf; stroke: #b0c8cf"/>
     <use xlink:href="#me7bab2ebc9" x="283.541542" y="165.346099" style="fill: #b0c8cf; stroke: #b0c8cf"/>
     <use xlink:href="#me7bab2ebc9" x="275.726658" y="140.312913" style="fill: #b0c8cf; stroke: #b0c8cf"/>
     <use xlink:href="#me7bab2ebc9" x="278.852906" y="115.128664" style="fill: #b0c8cf; stroke: #b0c8cf"/>
     <use xlink:href="#me7bab2ebc9" x="285.065801" y="63.399668" style="fill: #b0c8cf; stroke: #b0c8cf"/>
     <use xlink:href="#me7bab2ebc9" x="278.971378" y="166.570634" style="fill: #b0c8cf; stroke: #b0c8cf"/>
    </g>
   </g>
   <g id="PathCollection_9">
    <g clip-path="url(#p17c46d1292)">
     <use xlink:href="#m3e7af437f7" x="301.27888" y="171.59581" style="fill: #b5706b; stroke: #b5706b"/>
     <use xlink:href="#m3e7af437f7" x="301.633838" y="150.749986" style="fill: #b5706b; stroke: #b5706b"/>
     <use xlink:href="#m3e7af437f7" x="304.958696" y="143.62327" style="fill: #b5706b; stroke: #b5706b"/>
     <use xlink:href="#m3e7af437f7" x="298.603236" y="153.155626" style="fill: #b5706b; stroke: #b5706b"/>
     <use xlink:href="#m3e7af437f7" x="297.364225" y="156.552979" style="fill: #b5706b; stroke: #b5706b"/>
     <use xlink:href="#m3e7af437f7" x="303.387975" y="142.143034" style="fill: #b5706b; stroke: #b5706b"/>
     <use xlink:href="#m3e7af437f7" x="300.838317" y="89.009569" style="fill: #b5706b; stroke: #b5706b"/>
     <use xlink:href="#m3e7af437f7" x="302.896921" y="156.145477" style="fill: #b5706b; stroke: #b5706b"/>
    </g>
   </g>
   <g id="PathCollection_10">
    <g clip-path="url(#p17c46d1292)">
     <use xlink:href="#meafb52200f" x="352.061862" y="129.357264" style="fill: #7794b4; stroke: #7794b4"/>
     <use xlink:href="#meafb52200f" x="343.020611" y="164.542382" style="fill: #7794b4; stroke: #7794b4"/>
     <use xlink:href="#meafb52200f" x="351.198546" y="167.612725" style="fill: #7794b4; stroke: #7794b4"/>
     <use xlink:href="#meafb52200f" x="350.583022" y="162.930811" style="fill: #7794b4; stroke: #7794b4"/>
     <use xlink:href="#meafb52200f" x="340.273403" y="154.877944" style="fill: #7794b4; stroke: #7794b4"/>
     <use xlink:href="#meafb52200f" x="344.39631" y="164.603237" style="fill: #7794b4; stroke: #7794b4"/>
     <use xlink:href="#meafb52200f" x="340.306938" y="167.352521" style="fill: #7794b4; stroke: #7794b4"/>
     <use xlink:href="#meafb52200f" x="339.966395" y="153.631467" style="fill: #7794b4; stroke: #7794b4"/>
    </g>
   </g>
   <g id="PathCollection_11">
    <g clip-path="url(#p17c46d1292)">
     <use xlink:href="#me7bab2ebc9" x="370.982911" y="94.097997" style="fill: #b0c8cf; stroke: #b0c8cf"/>
     <use xlink:href="#me7bab2ebc9" x="366.33229" y="144.74128" style="fill: #b0c8cf; stroke: #b0c8cf"/>
     <use xlink:href="#me7bab2ebc9" x="366.56339" y="172.026537" style="fill: #b0c8cf; stroke: #b0c8cf"/>
     <use xlink:href="#me7bab2ebc9" x="368.255544" y="148.686573" style="fill: #b0c8cf; stroke: #b0c8cf"/>
     <use xlink:href="#me7bab2ebc9" x="369.317955" y="169.608067" style="fill: #b0c8cf; stroke: #b0c8cf"/>
     <use xlink:href="#me7bab2ebc9" x="363.949596" y="164.345472" style="fill: #b0c8cf; stroke: #b0c8cf"/>
     <use xlink:href="#me7bab2ebc9" x="366.347205" y="170.027337" style="fill: #b0c8cf; stroke: #b0c8cf"/>
     <use xlink:href="#me7bab2ebc9" x="361.545708" y="161.305127" style="fill: #b0c8cf; stroke: #b0c8cf"/>
    </g>
   </g>
   <g id="PathCollection_12">
    <g clip-path="url(#p17c46d1292)">
     <use xlink:href="#m3e7af437f7" x="382.241159" y="115.230233" style="fill: #b5706b; stroke: #b5706b"/>
     <use xlink:href="#m3e7af437f7" x="389.253685" y="164.808005" style="fill: #b5706b; stroke: #b5706b"/>
     <use xlink:href="#m3e7af437f7" x="385.456086" y="173.117887" style="fill: #b5706b; stroke: #b5706b"/>
     <use xlink:href="#m3e7af437f7" x="392.163319" y="169.92116" style="fill: #b5706b; stroke: #b5706b"/>
     <use xlink:href="#m3e7af437f7" x="382.531443" y="170.664384" style="fill: #b5706b; stroke: #b5706b"/>
     <use xlink:href="#m3e7af437f7" x="390.294808" y="170.042125" style="fill: #b5706b; stroke: #b5706b"/>
     <use xlink:href="#m3e7af437f7" x="390.014304" y="176.663665" style="fill: #b5706b; stroke: #b5706b"/>
     <use xlink:href="#m3e7af437f7" x="389.331859" y="149.118078" style="fill: #b5706b; stroke: #b5706b"/>
    </g>
   </g>
   <g id="PathCollection_13">
    <g clip-path="url(#p17c46d1292)">
     <use xlink:href="#meafb52200f" x="435.972177" y="163.034613" style="fill: #7794b4; stroke: #7794b4"/>
     <use xlink:href="#meafb52200f" x="427.624149" y="169.61229" style="fill: #7794b4; stroke: #7794b4"/>
     <use xlink:href="#meafb52200f" x="435.074194" y="170.482239" style="fill: #7794b4; stroke: #7794b4"/>
     <use xlink:href="#meafb52200f" x="435.71306" y="137.98961" style="fill: #7794b4; stroke: #7794b4"/>
     <use xlink:href="#meafb52200f" x="431.17685" y="139.59311" style="fill: #7794b4; stroke: #7794b4"/>
     <use xlink:href="#meafb52200f" x="432.62662" y="174.946223" style="fill: #7794b4; stroke: #7794b4"/>
     <use xlink:href="#meafb52200f" x="426.848029" y="166.298539" style="fill: #7794b4; stroke: #7794b4"/>
     <use xlink:href="#meafb52200f" x="430.658606" y="154.034282" style="fill: #7794b4; stroke: #7794b4"/>
    </g>
   </g>
   <g id="PathCollection_14">
    <g clip-path="url(#p17c46d1292)">
     <use xlink:href="#me7bab2ebc9" x="455.122597" y="173.235323" style="fill: #b0c8cf; stroke: #b0c8cf"/>
     <use xlink:href="#me7bab2ebc9" x="448.332347" y="167.928926" style="fill: #b0c8cf; stroke: #b0c8cf"/>
     <use xlink:href="#me7bab2ebc9" x="455.050647" y="145.590287" style="fill: #b0c8cf; stroke: #b0c8cf"/>
     <use xlink:href="#me7bab2ebc9" x="451.018215" y="149.173494" style="fill: #b0c8cf; stroke: #b0c8cf"/>
     <use xlink:href="#me7bab2ebc9" x="452.659627" y="158.969341" style="fill: #b0c8cf; stroke: #b0c8cf"/>
     <use xlink:href="#me7bab2ebc9" x="451.992676" y="177.916896" style="fill: #b0c8cf; stroke: #b0c8cf"/>
     <use xlink:href="#me7bab2ebc9" x="447.491971" y="152.969986" style="fill: #b0c8cf; stroke: #b0c8cf"/>
     <use xlink:href="#me7bab2ebc9" x="453.383274" y="168.375283" style="fill: #b0c8cf; stroke: #b0c8cf"/>
    </g>
   </g>
   <g id="PathCollection_15">
    <g clip-path="url(#p17c46d1292)">
     <use xlink:href="#m3e7af437f7" x="471.404594" y="150.843259" style="fill: #b5706b; stroke: #b5706b"/>
     <use xlink:href="#m3e7af437f7" x="479.740075" y="165.141028" style="fill: #b5706b; stroke: #b5706b"/>
     <use xlink:href="#m3e7af437f7" x="476.142495" y="157.314149" style="fill: #b5706b; stroke: #b5706b"/>
     <use xlink:href="#m3e7af437f7" x="468.370687" y="152.210061" style="fill: #b5706b; stroke: #b5706b"/>
     <use xlink:href="#m3e7af437f7" x="471.067081" y="166.258326" style="fill: #b5706b; stroke: #b5706b"/>
     <use xlink:href="#m3e7af437f7" x="473.791869" y="175.328856" style="fill: #b5706b; stroke: #b5706b"/>
     <use xlink:href="#m3e7af437f7" x="467.626682" y="160.17458" style="fill: #b5706b; stroke: #b5706b"/>
     <use xlink:href="#m3e7af437f7" x="478.69506" y="171.170884" style="fill: #b5706b; stroke: #b5706b"/>
    </g>
   </g>
   <g id="LineCollection_1">
    <path d="M 89.44221 77.954576 
L 89.44221 71.039153 
" clip-path="url(#p17c46d1292)" style="fill: none; stroke: #000000"/>
    <path d="M 174.877617 164.062784 
L 174.877617 107.696933 
" clip-path="url(#p17c46d1292)" style="fill: none; stroke: #000000"/>
    <path d="M 260.313023 173.725178 
L 260.313023 100.245871 
" clip-path="url(#p17c46d1292)" style="fill: none; stroke: #000000"/>
    <path d="M 345.74843 170.049453 
L 345.74843 146.177638 
" clip-path="url(#p17c46d1292)" style="fill: none; stroke: #000000"/>
    <path d="M 431.183837 172.77018 
L 431.183837 146.227548 
" clip-path="url(#p17c46d1292)" style="fill: none; stroke: #000000"/>
   </g>
   <g id="line2d_12">
    <defs>
     <path id="mbd46eb3e96" d="M 3 0 
L -3 -0 
" style="stroke: #000000"/>
    </defs>
    <g clip-path="url(#p17c46d1292)">
     <use xlink:href="#mbd46eb3e96" x="89.44221" y="77.954576" style="stroke: #000000"/>
     <use xlink:href="#mbd46eb3e96" x="174.877617" y="164.062784" style="stroke: #000000"/>
     <use xlink:href="#mbd46eb3e96" x="260.313023" y="173.725178" style="stroke: #000000"/>
     <use xlink:href="#mbd46eb3e96" x="345.74843" y="170.049453" style="stroke: #000000"/>
     <use xlink:href="#mbd46eb3e96" x="431.183837" y="172.77018" style="stroke: #000000"/>
    </g>
   </g>
   <g id="line2d_13">
    <g clip-path="url(#p17c46d1292)">
     <use xlink:href="#mbd46eb3e96" x="89.44221" y="71.039153" style="stroke: #000000"/>
     <use xlink:href="#mbd46eb3e96" x="174.877617" y="107.696933" style="stroke: #000000"/>
     <use xlink:href="#mbd46eb3e96" x="260.313023" y="100.245871" style="stroke: #000000"/>
     <use xlink:href="#mbd46eb3e96" x="345.74843" y="146.177638" style="stroke: #000000"/>
     <use xlink:href="#mbd46eb3e96" x="431.183837" y="146.227548" style="stroke: #000000"/>
    </g>
   </g>
   <g id="LineCollection_2">
    <path d="M 110.801062 118.868566 
L 110.801062 45.632439 
" clip-path="url(#p17c46d1292)" style="fill: none; stroke: #000000"/>
    <path d="M 196.236468 163.830193 
L 196.236468 103.986987 
" clip-path="url(#p17c46d1292)" style="fill: none; stroke: #000000"/>
    <path d="M 281.671875 172.89534 
L 281.671875 105.890979 
" clip-path="url(#p17c46d1292)" style="fill: none; stroke: #000000"/>
    <path d="M 367.107282 177.295793 
L 367.107282 128.91381 
" clip-path="url(#p17c46d1292)" style="fill: none; stroke: #000000"/>
    <path d="M 452.542688 172.834959 
L 452.542688 150.704923 
" clip-path="url(#p17c46d1292)" style="fill: none; stroke: #000000"/>
   </g>
   <g id="line2d_14">
    <g clip-path="url(#p17c46d1292)">
     <use xlink:href="#mbd46eb3e96" x="110.801062" y="118.868566" style="stroke: #000000"/>
     <use xlink:href="#mbd46eb3e96" x="196.236468" y="163.830193" style="stroke: #000000"/>
     <use xlink:href="#mbd46eb3e96" x="281.671875" y="172.89534" style="stroke: #000000"/>
     <use xlink:href="#mbd46eb3e96" x="367.107282" y="177.295793" style="stroke: #000000"/>
     <use xlink:href="#mbd46eb3e96" x="452.542688" y="172.834959" style="stroke: #000000"/>
    </g>
   </g>
   <g id="line2d_15">
    <g clip-path="url(#p17c46d1292)">
     <use xlink:href="#mbd46eb3e96" x="110.801062" y="45.632439" style="stroke: #000000"/>
     <use xlink:href="#mbd46eb3e96" x="196.236468" y="103.986987" style="stroke: #000000"/>
     <use xlink:href="#mbd46eb3e96" x="281.671875" y="105.890979" style="stroke: #000000"/>
     <use xlink:href="#mbd46eb3e96" x="367.107282" y="128.91381" style="stroke: #000000"/>
     <use xlink:href="#mbd46eb3e96" x="452.542688" y="150.704923" style="stroke: #000000"/>
    </g>
   </g>
   <g id="LineCollection_3">
    <path d="M 132.159913 155.001066 
L 132.159913 126.623179 
" clip-path="url(#p17c46d1292)" style="fill: none; stroke: #000000"/>
    <path d="M 217.59532 156.430274 
L 217.59532 106.079913 
" clip-path="url(#p17c46d1292)" style="fill: none; stroke: #000000"/>
    <path d="M 303.030727 168.307983 
L 303.030727 122.435957 
" clip-path="url(#p17c46d1292)" style="fill: none; stroke: #000000"/>
    <path d="M 388.466133 180.22589 
L 388.466133 142.165496 
" clip-path="url(#p17c46d1292)" style="fill: none; stroke: #000000"/>
    <path d="M 473.90154 170.479977 
L 473.90154 154.130311 
" clip-path="url(#p17c46d1292)" style="fill: none; stroke: #000000"/>
   </g>
   <g id="line2d_16">
    <g clip-path="url(#p17c46d1292)">
     <use xlink:href="#mbd46eb3e96" x="132.159913" y="155.001066" style="stroke: #000000"/>
     <use xlink:href="#mbd46eb3e96" x="217.59532" y="156.430274" style="stroke: #000000"/>
     <use xlink:href="#mbd46eb3e96" x="303.030727" y="168.307983" style="stroke: #000000"/>
     <use xlink:href="#mbd46eb3e96" x="388.466133" y="180.22589" style="stroke: #000000"/>
     <use xlink:href="#mbd46eb3e96" x="473.90154" y="170.479977" style="stroke: #000000"/>
    </g>
   </g>
   <g id="line2d_17">
    <g clip-path="url(#p17c46d1292)">
     <use xlink:href="#mbd46eb3e96" x="132.159913" y="126.623179" style="stroke: #000000"/>
     <use xlink:href="#mbd46eb3e96" x="217.59532" y="106.079913" style="stroke: #000000"/>
     <use xlink:href="#mbd46eb3e96" x="303.030727" y="122.435957" style="stroke: #000000"/>
     <use xlink:href="#mbd46eb3e96" x="388.466133" y="142.165496" style="stroke: #000000"/>
     <use xlink:href="#mbd46eb3e96" x="473.90154" y="154.130311" style="stroke: #000000"/>
    </g>
   </g>
   <g id="patch_18">
    <path d="M 58.471875 192.285375 
L 58.471875 25.965375 
" style="fill: none; stroke: #000000; stroke-width: 0.8; stroke-linejoin: miter; stroke-linecap: square"/>
   </g>
   <g id="patch_19">
    <path d="M 504.871875 192.285375 
L 504.871875 25.965375 
" style="fill: none; stroke: #000000; stroke-width: 0.8; stroke-linejoin: miter; stroke-linecap: square"/>
   </g>
   <g id="patch_20">
    <path d="M 58.471875 192.285375 
L 504.871875 192.285375 
" style="fill: none; stroke: #000000; stroke-width: 0.8; stroke-linejoin: miter; stroke-linecap: square"/>
   </g>
   <g id="patch_21">
    <path d="M 58.471875 25.965375 
L 504.871875 25.965375 
" style="fill: none; stroke: #000000; stroke-width: 0.8; stroke-linejoin: miter; stroke-linecap: square"/>
   </g>
   <g id="PathCollection_16">
    <defs>
     <path id="m96621b1b45" d="M 0 1.414214 
C 0.375054 1.414214 0.734797 1.265203 1 1 
C 1.265203 0.734797 1.414214 0.375054 1.414214 0 
C 1.414214 -0.375054 1.265203 -0.734797 1 -1 
C 0.734797 -1.265203 0.375054 -1.414214 0 -1.414214 
C -0.375054 -1.414214 -0.734797 -1.265203 -1 -1 
C -1.265203 -0.734797 -1.414214 -0.375054 -1.414214 0 
C -1.414214 0.375054 -1.265203 0.734797 -1 1 
C -0.734797 1.265203 -0.375054 1.414214 0 1.414214 
z
" style="stroke: #000000"/>
    </defs>
    <g clip-path="url(#p17c46d1292)">
     <use xlink:href="#m96621b1b45" x="89.44221" y="74.496865" style="stroke: #000000"/>
     <use xlink:href="#m96621b1b45" x="174.877617" y="135.879858" style="stroke: #000000"/>
     <use xlink:href="#m96621b1b45" x="260.313023" y="136.985525" style="stroke: #000000"/>
     <use xlink:href="#m96621b1b45" x="345.74843" y="158.113545" style="stroke: #000000"/>
     <use xlink:href="#m96621b1b45" x="431.183837" y="159.498864" style="stroke: #000000"/>
    </g>
   </g>
   <g id="text_13">
    <!-- 88.5 -->
    <g transform="translate(78.309397 82.095302) scale(0.1 -0.1)">
     <defs>
      <path id="DejaVuSans-2e" d="M 684 794 
L 1344 794 
L 1344 0 
L 684 0 
L 684 794 
z
" transform="scale(0.015625)"/>
     </defs>
     <use xlink:href="#DejaVuSans-38"/>
     <use xlink:href="#DejaVuSans-38" x="63.623047"/>
     <use xlink:href="#DejaVuSans-2e" x="127.246094"/>
     <use xlink:href="#DejaVuSans-35" x="159.033203"/>
    </g>
   </g>
   <g id="text_14">
    <!-- 42.4 -->
    <g transform="translate(163.744804 143.478296) scale(0.1 -0.1)">
     <use xlink:href="#DejaVuSans-34"/>
     <use xlink:href="#DejaVuSans-32" x="63.623047"/>
     <use xlink:href="#DejaVuSans-2e" x="127.246094"/>
     <use xlink:href="#DejaVuSans-34" x="159.033203"/>
    </g>
   </g>
   <g id="text_15">
    <!-- 41.6 -->
    <g transform="translate(249.180211 144.583962) scale(0.1 -0.1)">
     <use xlink:href="#DejaVuSans-34"/>
     <use xlink:href="#DejaVuSans-31" x="63.623047"/>
     <use xlink:href="#DejaVuSans-2e" x="127.246094"/>
     <use xlink:href="#DejaVuSans-36" x="159.033203"/>
    </g>
   </g>
   <g id="text_16">
    <!-- 25.7 -->
    <g transform="translate(334.615618 165.711983) scale(0.1 -0.1)">
     <use xlink:href="#DejaVuSans-32"/>
     <use xlink:href="#DejaVuSans-35" x="63.623047"/>
     <use xlink:href="#DejaVuSans-2e" x="127.246094"/>
     <use xlink:href="#DejaVuSans-37" x="159.033203"/>
    </g>
   </g>
   <g id="text_17">
    <!-- 24.6 -->
    <g transform="translate(420.051024 167.097301) scale(0.1 -0.1)">
     <use xlink:href="#DejaVuSans-32"/>
     <use xlink:href="#DejaVuSans-34" x="63.623047"/>
     <use xlink:href="#DejaVuSans-2e" x="127.246094"/>
     <use xlink:href="#DejaVuSans-36" x="159.033203"/>
    </g>
   </g>
   <g id="PathCollection_17">
    <g clip-path="url(#p17c46d1292)">
     <use xlink:href="#m96621b1b45" x="110.801062" y="82.250503" style="stroke: #000000"/>
     <use xlink:href="#m96621b1b45" x="196.236468" y="133.90859" style="stroke: #000000"/>
     <use xlink:href="#m96621b1b45" x="281.671875" y="139.393159" style="stroke: #000000"/>
     <use xlink:href="#m96621b1b45" x="367.107282" y="153.104801" style="stroke: #000000"/>
     <use xlink:href="#m96621b1b45" x="452.542688" y="161.769941" style="stroke: #000000"/>
    </g>
   </g>
   <g id="text_18">
    <!-- 82.7 -->
    <g transform="translate(99.668249 89.84894) scale(0.1 -0.1)">
     <use xlink:href="#DejaVuSans-38"/>
     <use xlink:href="#DejaVuSans-32" x="63.623047"/>
     <use xlink:href="#DejaVuSans-2e" x="127.246094"/>
     <use xlink:href="#DejaVuSans-37" x="159.033203"/>
    </g>
   </g>
   <g id="text_19">
    <!-- 43.9 -->
    <g transform="translate(185.103656 141.507027) scale(0.1 -0.1)">
     <defs>
      <path id="DejaVuSans-33" d="M 2597 2516 
Q 3050 2419 3304 2112 
Q 3559 1806 3559 1356 
Q 3559 666 3084 287 
Q 2609 -91 1734 -91 
Q 1441 -91 1130 -33 
Q 819 25 488 141 
L 488 750 
Q 750 597 1062 519 
Q 1375 441 1716 441 
Q 2309 441 2620 675 
Q 2931 909 2931 1356 
Q 2931 1769 2642 2001 
Q 2353 2234 1838 2234 
L 1294 2234 
L 1294 2753 
L 1863 2753 
Q 2328 2753 2575 2939 
Q 2822 3125 2822 3475 
Q 2822 3834 2567 4026 
Q 2313 4219 1838 4219 
Q 1578 4219 1281 4162 
Q 984 4106 628 3988 
L 628 4550 
Q 988 4650 1302 4700 
Q 1616 4750 1894 4750 
Q 2613 4750 3031 4423 
Q 3450 4097 3450 3541 
Q 3450 3153 3228 2886 
Q 3006 2619 2597 2516 
z
" transform="scale(0.015625)"/>
      <path id="DejaVuSans-39" d="M 703 97 
L 703 672 
Q 941 559 1184 500 
Q 1428 441 1663 441 
Q 2288 441 2617 861 
Q 2947 1281 2994 2138 
Q 2813 1869 2534 1725 
Q 2256 1581 1919 1581 
Q 1219 1581 811 2004 
Q 403 2428 403 3163 
Q 403 3881 828 4315 
Q 1253 4750 1959 4750 
Q 2769 4750 3195 4129 
Q 3622 3509 3622 2328 
Q 3622 1225 3098 567 
Q 2575 -91 1691 -91 
Q 1453 -91 1209 -44 
Q 966 3 703 97 
z
M 1959 2075 
Q 2384 2075 2632 2365 
Q 2881 2656 2881 3163 
Q 2881 3666 2632 3958 
Q 2384 4250 1959 4250 
Q 1534 4250 1286 3958 
Q 1038 3666 1038 3163 
Q 1038 2656 1286 2365 
Q 1534 2075 1959 2075 
z
" transform="scale(0.015625)"/>
     </defs>
     <use xlink:href="#DejaVuSans-34"/>
     <use xlink:href="#DejaVuSans-33" x="63.623047"/>
     <use xlink:href="#DejaVuSans-2e" x="127.246094"/>
     <use xlink:href="#DejaVuSans-39" x="159.033203"/>
    </g>
   </g>
   <g id="text_20">
    <!-- 39.8 -->
    <g transform="translate(270.539062 146.991597) scale(0.1 -0.1)">
     <use xlink:href="#DejaVuSans-33"/>
     <use xlink:href="#DejaVuSans-39" x="63.623047"/>
     <use xlink:href="#DejaVuSans-2e" x="127.246094"/>
     <use xlink:href="#DejaVuSans-38" x="159.033203"/>
    </g>
   </g>
   <g id="text_21">
    <!-- 29.4 -->
    <g transform="translate(355.974469 160.703239) scale(0.1 -0.1)">
     <use xlink:href="#DejaVuSans-32"/>
     <use xlink:href="#DejaVuSans-39" x="63.623047"/>
     <use xlink:href="#DejaVuSans-2e" x="127.246094"/>
     <use xlink:href="#DejaVuSans-34" x="159.033203"/>
    </g>
   </g>
   <g id="text_22">
    <!-- 22.9 -->
    <g transform="translate(441.409876 169.368378) scale(0.1 -0.1)">
     <use xlink:href="#DejaVuSans-32"/>
     <use xlink:href="#DejaVuSans-32" x="63.623047"/>
     <use xlink:href="#DejaVuSans-2e" x="127.246094"/>
     <use xlink:href="#DejaVuSans-39" x="159.033203"/>
    </g>
   </g>
   <g id="PathCollection_18">
    <g clip-path="url(#p17c46d1292)">
     <use xlink:href="#m96621b1b45" x="132.159913" y="140.812122" style="stroke: #000000"/>
     <use xlink:href="#m96621b1b45" x="217.59532" y="131.255094" style="stroke: #000000"/>
     <use xlink:href="#m96621b1b45" x="303.030727" y="145.37197" style="stroke: #000000"/>
     <use xlink:href="#m96621b1b45" x="388.466133" y="161.195693" style="stroke: #000000"/>
     <use xlink:href="#m96621b1b45" x="473.90154" y="162.305144" style="stroke: #000000"/>
    </g>
   </g>
   <g id="text_23">
    <!-- 38.7 -->
    <g transform="translate(121.027101 148.41056) scale(0.1 -0.1)">
     <use xlink:href="#DejaVuSans-33"/>
     <use xlink:href="#DejaVuSans-38" x="63.623047"/>
     <use xlink:href="#DejaVuSans-2e" x="127.246094"/>
     <use xlink:href="#DejaVuSans-37" x="159.033203"/>
    </g>
   </g>
   <g id="text_24">
    <!-- 45.9 -->
    <g transform="translate(206.462507 138.853531) scale(0.1 -0.1)">
     <use xlink:href="#DejaVuSans-34"/>
     <use xlink:href="#DejaVuSans-35" x="63.623047"/>
     <use xlink:href="#DejaVuSans-2e" x="127.246094"/>
     <use xlink:href="#DejaVuSans-39" x="159.033203"/>
    </g>
   </g>
   <g id="text_25">
    <!-- 35.3 -->
    <g transform="translate(291.897914 152.970407) scale(0.1 -0.1)">
     <use xlink:href="#DejaVuSans-33"/>
     <use xlink:href="#DejaVuSans-35" x="63.623047"/>
     <use xlink:href="#DejaVuSans-2e" x="127.246094"/>
     <use xlink:href="#DejaVuSans-33" x="159.033203"/>
    </g>
   </g>
   <g id="text_26">
    <!-- 23.4 -->
    <g transform="translate(377.333321 168.79413) scale(0.1 -0.1)">
     <use xlink:href="#DejaVuSans-32"/>
     <use xlink:href="#DejaVuSans-33" x="63.623047"/>
     <use xlink:href="#DejaVuSans-2e" x="127.246094"/>
     <use xlink:href="#DejaVuSans-34" x="159.033203"/>
    </g>
   </g>
   <g id="text_27">
    <!-- 22.5 -->
    <g transform="translate(462.768728 169.903582) scale(0.1 -0.1)">
     <use xlink:href="#DejaVuSans-32"/>
     <use xlink:href="#DejaVuSans-32" x="63.623047"/>
     <use xlink:href="#DejaVuSans-2e" x="127.246094"/>
     <use xlink:href="#DejaVuSans-35" x="159.033203"/>
    </g>
   </g>
   <g id="text_28">
    <!-- LCO -->
    <g transform="translate(264.513562 19.965375) scale(0.168 -0.168)">
     <defs>
      <path id="DejaVuSans-4c" d="M 628 4666 
L 1259 4666 
L 1259 531 
L 3531 531 
L 3531 0 
L 628 0 
L 628 4666 
z
" transform="scale(0.015625)"/>
      <path id="DejaVuSans-43" d="M 4122 4306 
L 4122 3641 
Q 3803 3938 3442 4084 
Q 3081 4231 2675 4231 
Q 1875 4231 1450 3742 
Q 1025 3253 1025 2328 
Q 1025 1406 1450 917 
Q 1875 428 2675 428 
Q 3081 428 3442 575 
Q 3803 722 4122 1019 
L 4122 359 
Q 3791 134 3420 21 
Q 3050 -91 2638 -91 
Q 1578 -91 968 557 
Q 359 1206 359 2328 
Q 359 3453 968 4101 
Q 1578 4750 2638 4750 
Q 3056 4750 3426 4639 
Q 3797 4528 4122 4306 
z
" transform="scale(0.015625)"/>
      <path id="DejaVuSans-4f" d="M 2522 4238 
Q 1834 4238 1429 3725 
Q 1025 3213 1025 2328 
Q 1025 1447 1429 934 
Q 1834 422 2522 422 
Q 3209 422 3611 934 
Q 4013 1447 4013 2328 
Q 4013 3213 3611 3725 
Q 3209 4238 2522 4238 
z
M 2522 4750 
Q 3503 4750 4090 4092 
Q 4678 3434 4678 2328 
Q 4678 1225 4090 567 
Q 3503 -91 2522 -91 
Q 1538 -91 948 565 
Q 359 1222 359 2328 
Q 359 3434 948 4092 
Q 1538 4750 2522 4750 
z
" transform="scale(0.015625)"/>
     </defs>
     <use xlink:href="#DejaVuSans-4c"/>
     <use xlink:href="#DejaVuSans-43" x="55.712891"/>
     <use xlink:href="#DejaVuSans-4f" x="125.537109"/>
    </g>
   </g>
  </g>
 </g>
 <defs>
  <clipPath id="p17c46d1292">
   <rect x="58.471875" y="25.965375" width="446.4" height="166.32"/>
  </clipPath>
 </defs>
</svg>
