<?xml version="1.0" encoding="utf-8" standalone="no"?>
<!DOCTYPE svg PUBLIC "-//W3C//DTD SVG 1.1//EN"
  "http://www.w3.org/Graphics/SVG/1.1/DTD/svg11.dtd">
<svg xmlns:xlink="http://www.w3.org/1999/xlink" width="464.3pt" height="184.22pt" viewBox="0 0 464.3 184.22" xmlns="http://www.w3.org/2000/svg" version="1.1">
 <metadata>
  <rdf:RDF xmlns:dc="http://purl.org/dc/elements/1.1/" xmlns:cc="http://creativecommons.org/ns#" xmlns:rdf="http://www.w3.org/1999/02/22-rdf-syntax-ns#">
   <cc:Work>
    <dc:type rdf:resource="http://purl.org/dc/dcmitype/StillImage"/>
    <dc:date>2024-12-06T22:09:22.906621</dc:date>
    <dc:format>image/svg+xml</dc:format>
    <dc:creator>
     <cc:Agent>
      <dc:title>Matplotlib v3.8.2, https://matplotlib.org/</dc:title>
     </cc:Agent>
    </dc:creator>
   </cc:Work>
  </rdf:RDF>
 </metadata>
 <defs>
  <style type="text/css">*{stroke-linejoin: round; stroke-linecap: butt}</style>
 </defs>
 <g id="figure_1">
  <g id="patch_1">
   <path d="M 0 184.22 
L 464.3 184.22 
L 464.3 0 
L 0 0 
z
" style="fill: #ffffff"/>
  </g>
  <g id="axes_1">
   <g id="patch_2">
    <path d="M 10.7 173.52 
L 457.1 173.52 
L 457.1 7.2 
L 10.7 7.2 
z
" style="fill: #ffffff"/>
   </g>
   <g id="patch_3">
    <path d="M 30.990909 173.52 
L 58.045455 173.52 
L 58.045455 86.731467 
L 30.990909 86.731467 
z
" clip-path="url(#pb30e0aad95)" style="fill: #a9bed9"/>
   </g>
   <g id="patch_4">
    <path d="M 139.209091 173.52 
L 166.263636 173.52 
L 166.263636 101.33754 
L 139.209091 101.33754 
z
" clip-path="url(#pb30e0aad95)" style="fill: #a9bed9"/>
   </g>
   <g id="patch_5">
    <path d="M 247.427273 173.52 
L 274.481818 173.52 
L 274.481818 129.004809 
L 247.427273 129.004809 
z
" clip-path="url(#pb30e0aad95)" style="fill: #a9bed9"/>
   </g>
   <g id="patch_6">
    <path d="M 355.645455 173.52 
L 382.7 173.52 
L 382.7 124.100429 
L 355.645455 124.100429 
z
" clip-path="url(#pb30e0aad95)" style="fill: #a9bed9"/>
   </g>
   <g id="patch_7">
    <path d="M 58.045455 173.52 
L 85.1 173.52 
L 85.1 110.448555 
L 58.045455 110.448555 
z
" clip-path="url(#pb30e0aad95)" style="fill: #e3f0f6"/>
   </g>
   <g id="patch_8">
    <path d="M 166.263636 173.52 
L 193.318182 173.52 
L 193.318182 122.382394 
L 166.263636 122.382394 
z
" clip-path="url(#pb30e0aad95)" style="fill: #e3f0f6"/>
   </g>
   <g id="patch_9">
    <path d="M 274.481818 173.52 
L 301.536364 173.52 
L 301.536364 138.863248 
L 274.481818 138.863248 
z
" clip-path="url(#pb30e0aad95)" style="fill: #e3f0f6"/>
   </g>
   <g id="patch_10">
    <path d="M 382.7 173.52 
L 409.754545 173.52 
L 409.754545 134.072888 
L 382.7 134.072888 
z
" clip-path="url(#pb30e0aad95)" style="fill: #e3f0f6"/>
   </g>
   <g id="patch_11">
    <path d="M 85.1 173.52 
L 112.154545 173.52 
L 112.154545 130.221742 
L 85.1 130.221742 
z
" clip-path="url(#pb30e0aad95)" style="fill: #e8a19d"/>
   </g>
   <g id="patch_12">
    <path d="M 193.318182 173.52 
L 220.372727 173.52 
L 220.372727 119.352496 
L 193.318182 119.352496 
z
" clip-path="url(#pb30e0aad95)" style="fill: #e8a19d"/>
   </g>
   <g id="patch_13">
    <path d="M 301.536364 173.52 
L 328.590909 173.52 
L 328.590909 142.53813 
L 301.536364 142.53813 
z
" clip-path="url(#pb30e0aad95)" style="fill: #e8a19d"/>
   </g>
   <g id="patch_14">
    <path d="M 409.754545 173.52 
L 436.809091 173.52 
L 436.809091 143.127187 
L 409.754545 143.127187 
z
" clip-path="url(#pb30e0aad95)" style="fill: #e8a19d"/>
   </g>
   <g id="matplotlib.axis_1">
    <g id="xtick_1">
     <g id="line2d_1">
      <defs>
       <path id="m77fb8e7ae1" d="M 0 0 
L 0 3.5 
" style="stroke: #000000; stroke-width: 0.8"/>
      </defs>
      <g>
       <use xlink:href="#m77fb8e7ae1" x="71.572727" y="173.52" style="stroke: #000000; stroke-width: 0.8"/>
      </g>
     </g>
    </g>
    <g id="xtick_2">
     <g id="line2d_2">
      <g>
       <use xlink:href="#m77fb8e7ae1" x="179.790909" y="173.52" style="stroke: #000000; stroke-width: 0.8"/>
      </g>
     </g>
    </g>
    <g id="xtick_3">
     <g id="line2d_3">
      <g>
       <use xlink:href="#m77fb8e7ae1" x="288.009091" y="173.52" style="stroke: #000000; stroke-width: 0.8"/>
      </g>
     </g>
    </g>
    <g id="xtick_4">
     <g id="line2d_4">
      <g>
       <use xlink:href="#m77fb8e7ae1" x="396.227273" y="173.52" style="stroke: #000000; stroke-width: 0.8"/>
      </g>
     </g>
    </g>
   </g>
   <g id="matplotlib.axis_2">
    <g id="ytick_1">
     <g id="line2d_5">
      <defs>
       <path id="mbc66b44c58" d="M 0 0 
L -3.5 0 
" style="stroke: #000000; stroke-width: 0.8"/>
      </defs>
      <g>
       <use xlink:href="#mbc66b44c58" x="10.7" y="173.52" style="stroke: #000000; stroke-width: 0.8"/>
      </g>
     </g>
    </g>
    <g id="ytick_2">
     <g id="line2d_6">
      <g>
       <use xlink:href="#mbc66b44c58" x="10.7" y="124.602353" style="stroke: #000000; stroke-width: 0.8"/>
      </g>
     </g>
    </g>
    <g id="ytick_3">
     <g id="line2d_7">
      <g>
       <use xlink:href="#mbc66b44c58" x="10.7" y="75.684706" style="stroke: #000000; stroke-width: 0.8"/>
      </g>
     </g>
    </g>
    <g id="ytick_4">
     <g id="line2d_8">
      <g>
       <use xlink:href="#mbc66b44c58" x="10.7" y="26.767059" style="stroke: #000000; stroke-width: 0.8"/>
      </g>
     </g>
    </g>
   </g>
   <g id="PathCollection_1">
    <defs>
     <path id="m1316eff80e" d="M 0 3 
C 0.795609 3 1.55874 2.683901 2.12132 2.12132 
C 2.683901 1.55874 3 0.795609 3 0 
C 3 -0.795609 2.683901 -1.55874 2.12132 -2.12132 
C 1.55874 -2.683901 0.795609 -3 0 -3 
C -0.795609 -3 -1.55874 -2.683901 -2.12132 -2.12132 
C -2.683901 -1.55874 -3 -0.795609 -3 0 
C -3 0.795609 -2.683901 1.55874 -2.12132 2.12132 
C -1.55874 2.683901 -0.795609 3 0 3 
z
" style="stroke: #7794b4"/>
    </defs>
    <g clip-path="url(#pb30e0aad95)">
     <use xlink:href="#m1316eff80e" x="42.043342" y="87.545151" style="fill: #7794b4; stroke: #7794b4"/>
     <use xlink:href="#m1316eff80e" x="43.889146" y="89.455075" style="fill: #7794b4; stroke: #7794b4"/>
     <use xlink:href="#m1316eff80e" x="43.96063" y="86.252508" style="fill: #7794b4; stroke: #7794b4"/>
     <use xlink:href="#m1316eff80e" x="44.48472" y="85.319653" style="fill: #7794b4; stroke: #7794b4"/>
     <use xlink:href="#m1316eff80e" x="45.391372" y="84.713743" style="fill: #7794b4; stroke: #7794b4"/>
     <use xlink:href="#m1316eff80e" x="47.513369" y="87.288212" style="fill: #7794b4; stroke: #7794b4"/>
     <use xlink:href="#m1316eff80e" x="38.628834" y="87.717761" style="fill: #7794b4; stroke: #7794b4"/>
     <use xlink:href="#m1316eff80e" x="37.126749" y="85.559663" style="fill: #7794b4; stroke: #7794b4"/>
    </g>
   </g>
   <g id="PathCollection_2">
    <defs>
     <path id="m32985bbe11" d="M 0 3 
C 0.795609 3 1.55874 2.683901 2.12132 2.12132 
C 2.683901 1.55874 3 0.795609 3 0 
C 3 -0.795609 2.683901 -1.55874 2.12132 -2.12132 
C 1.55874 -2.683901 0.795609 -3 0 -3 
C -0.795609 -3 -1.55874 -2.683901 -2.12132 -2.12132 
C -2.683901 -1.55874 -3 -0.795609 -3 0 
C -3 0.795609 -2.683901 1.55874 -2.12132 2.12132 
C -1.55874 2.683901 -0.795609 3 0 3 
z
" style="stroke: #b0c8cf"/>
    </defs>
    <g clip-path="url(#pb30e0aad95)">
     <use xlink:href="#m32985bbe11" x="78.734365" y="114.460013" style="fill: #b0c8cf; stroke: #b0c8cf"/>
     <use xlink:href="#m32985bbe11" x="73.437742" y="75.867253" style="fill: #b0c8cf; stroke: #b0c8cf"/>
     <use xlink:href="#m32985bbe11" x="64.789367" y="75.958183" style="fill: #b0c8cf; stroke: #b0c8cf"/>
     <use xlink:href="#m32985bbe11" x="73.91133" y="132.743408" style="fill: #b0c8cf; stroke: #b0c8cf"/>
     <use xlink:href="#m32985bbe11" x="74.730768" y="133.004452" style="fill: #b0c8cf; stroke: #b0c8cf"/>
     <use xlink:href="#m32985bbe11" x="67.913472" y="123.584703" style="fill: #b0c8cf; stroke: #b0c8cf"/>
     <use xlink:href="#m32985bbe11" x="67.569665" y="117.521891" style="fill: #b0c8cf; stroke: #b0c8cf"/>
    </g>
   </g>
   <g id="PathCollection_3">
    <defs>
     <path id="m771a0a5171" d="M 0 3 
C 0.795609 3 1.55874 2.683901 2.12132 2.12132 
C 2.683901 1.55874 3 0.795609 3 0 
C 3 -0.795609 2.683901 -1.55874 2.12132 -2.12132 
C 1.55874 -2.683901 0.795609 -3 0 -3 
C -0.795609 -3 -1.55874 -2.683901 -2.12132 -2.12132 
C -2.683901 -1.55874 -3 -0.795609 -3 0 
C -3 0.795609 -2.683901 1.55874 -2.12132 2.12132 
C -1.55874 2.683901 -0.795609 3 0 3 
z
" style="stroke: #b5706b"/>
    </defs>
    <g clip-path="url(#pb30e0aad95)">
     <use xlink:href="#m771a0a5171" x="100.93085" y="141.223459" style="fill: #b5706b; stroke: #b5706b"/>
     <use xlink:href="#m771a0a5171" x="101.235705" y="111.219051" style="fill: #b5706b; stroke: #b5706b"/>
     <use xlink:href="#m771a0a5171" x="91.638943" y="134.237638" style="fill: #b5706b; stroke: #b5706b"/>
     <use xlink:href="#m771a0a5171" x="101.694113" y="137.233213" style="fill: #b5706b; stroke: #b5706b"/>
     <use xlink:href="#m771a0a5171" x="95.490789" y="124.930091" style="fill: #b5706b; stroke: #b5706b"/>
     <use xlink:href="#m771a0a5171" x="90.70609" y="134.182741" style="fill: #b5706b; stroke: #b5706b"/>
     <use xlink:href="#m771a0a5171" x="95.908621" y="140.539399" style="fill: #b5706b; stroke: #b5706b"/>
     <use xlink:href="#m771a0a5171" x="93.695743" y="118.208362" style="fill: #b5706b; stroke: #b5706b"/>
    </g>
   </g>
   <g id="PathCollection_4">
    <g clip-path="url(#pb30e0aad95)">
     <use xlink:href="#m1316eff80e" x="151.725989" y="141.12198" style="fill: #7794b4; stroke: #7794b4"/>
     <use xlink:href="#m1316eff80e" x="156.603485" y="111.601838" style="fill: #7794b4; stroke: #7794b4"/>
     <use xlink:href="#m1316eff80e" x="158.946795" y="36.371262" style="fill: #7794b4; stroke: #7794b4"/>
     <use xlink:href="#m1316eff80e" x="153.73483" y="136.245994" style="fill: #7794b4; stroke: #7794b4"/>
     <use xlink:href="#m1316eff80e" x="145.496581" y="138.544799" style="fill: #7794b4; stroke: #7794b4"/>
     <use xlink:href="#m1316eff80e" x="156.610939" y="142.935782" style="fill: #7794b4; stroke: #7794b4"/>
     <use xlink:href="#m1316eff80e" x="153.735675" y="88.160129" style="fill: #7794b4; stroke: #7794b4"/>
     <use xlink:href="#m1316eff80e" x="158.266084" y="15.718513" style="fill: #7794b4; stroke: #7794b4"/>
    </g>
   </g>
   <g id="PathCollection_5">
    <g clip-path="url(#pb30e0aad95)">
     <use xlink:href="#m32985bbe11" x="175.957834" y="137.048881" style="fill: #b0c8cf; stroke: #b0c8cf"/>
     <use xlink:href="#m32985bbe11" x="180.944795" y="65.861042" style="fill: #b0c8cf; stroke: #b0c8cf"/>
     <use xlink:href="#m32985bbe11" x="175.716606" y="139.637946" style="fill: #b0c8cf; stroke: #b0c8cf"/>
     <use xlink:href="#m32985bbe11" x="172.056902" y="136.515263" style="fill: #b0c8cf; stroke: #b0c8cf"/>
     <use xlink:href="#m32985bbe11" x="184.739174" y="112.680946" style="fill: #b0c8cf; stroke: #b0c8cf"/>
     <use xlink:href="#m32985bbe11" x="186.991511" y="139.021146" style="fill: #b0c8cf; stroke: #b0c8cf"/>
     <use xlink:href="#m32985bbe11" x="184.210772" y="109.2988" style="fill: #b0c8cf; stroke: #b0c8cf"/>
     <use xlink:href="#m32985bbe11" x="185.608682" y="138.995167" style="fill: #b0c8cf; stroke: #b0c8cf"/>
    </g>
   </g>
   <g id="PathCollection_6">
    <g clip-path="url(#pb30e0aad95)">
     <use xlink:href="#m771a0a5171" x="208.06978" y="150.15139" style="fill: #b5706b; stroke: #b5706b"/>
     <use xlink:href="#m771a0a5171" x="199.821471" y="127.619431" style="fill: #b5706b; stroke: #b5706b"/>
     <use xlink:href="#m771a0a5171" x="212.726045" y="92.438176" style="fill: #b5706b; stroke: #b5706b"/>
     <use xlink:href="#m771a0a5171" x="210.134922" y="129.257584" style="fill: #b5706b; stroke: #b5706b"/>
     <use xlink:href="#m771a0a5171" x="207.357717" y="123.660232" style="fill: #b5706b; stroke: #b5706b"/>
     <use xlink:href="#m771a0a5171" x="210.267784" y="146.666018" style="fill: #b5706b; stroke: #b5706b"/>
     <use xlink:href="#m771a0a5171" x="210.483755" y="86.747521" style="fill: #b5706b; stroke: #b5706b"/>
     <use xlink:href="#m771a0a5171" x="204.7628" y="98.279598" style="fill: #b5706b; stroke: #b5706b"/>
    </g>
   </g>
   <g id="PathCollection_7">
    <g clip-path="url(#pb30e0aad95)">
     <use xlink:href="#m1316eff80e" x="263.120214" y="137.946287" style="fill: #7794b4; stroke: #7794b4"/>
     <use xlink:href="#m1316eff80e" x="262.468326" y="132.413179" style="fill: #7794b4; stroke: #7794b4"/>
     <use xlink:href="#m1316eff80e" x="259.752452" y="97.507649" style="fill: #7794b4; stroke: #7794b4"/>
     <use xlink:href="#m1316eff80e" x="254.541221" y="121.121101" style="fill: #7794b4; stroke: #7794b4"/>
     <use xlink:href="#m1316eff80e" x="263.700667" y="114.128274" style="fill: #7794b4; stroke: #7794b4"/>
     <use xlink:href="#m1316eff80e" x="262.478846" y="143.296004" style="fill: #7794b4; stroke: #7794b4"/>
     <use xlink:href="#m1316eff80e" x="265.983072" y="139.902623" style="fill: #7794b4; stroke: #7794b4"/>
     <use xlink:href="#m1316eff80e" x="264.188257" y="145.723361" style="fill: #7794b4; stroke: #7794b4"/>
    </g>
   </g>
   <g id="PathCollection_8">
    <g clip-path="url(#pb30e0aad95)">
     <use xlink:href="#m32985bbe11" x="282.892939" y="150.487282" style="fill: #b0c8cf; stroke: #b0c8cf"/>
     <use xlink:href="#m32985bbe11" x="292.641545" y="135.544271" style="fill: #b0c8cf; stroke: #b0c8cf"/>
     <use xlink:href="#m32985bbe11" x="293.719009" y="131.123554" style="fill: #b0c8cf; stroke: #b0c8cf"/>
     <use xlink:href="#m32985bbe11" x="293.760674" y="137.279007" style="fill: #b0c8cf; stroke: #b0c8cf"/>
     <use xlink:href="#m32985bbe11" x="296.050233" y="143.380796" style="fill: #b0c8cf; stroke: #b0c8cf"/>
     <use xlink:href="#m32985bbe11" x="286.971098" y="152.903458" style="fill: #b0c8cf; stroke: #b0c8cf"/>
     <use xlink:href="#m32985bbe11" x="286.598874" y="133.979294" style="fill: #b0c8cf; stroke: #b0c8cf"/>
     <use xlink:href="#m32985bbe11" x="280.711141" y="126.208325" style="fill: #b0c8cf; stroke: #b0c8cf"/>
    </g>
   </g>
   <g id="PathCollection_9">
    <g clip-path="url(#pb30e0aad95)">
     <use xlink:href="#m771a0a5171" x="321.279367" y="151.833582" style="fill: #b5706b; stroke: #b5706b"/>
     <use xlink:href="#m771a0a5171" x="321.784961" y="127.529749" style="fill: #b5706b; stroke: #b5706b"/>
     <use xlink:href="#m771a0a5171" x="309.615542" y="120.047697" style="fill: #b5706b; stroke: #b5706b"/>
     <use xlink:href="#m771a0a5171" x="320.794567" y="141.907635" style="fill: #b5706b; stroke: #b5706b"/>
     <use xlink:href="#m771a0a5171" x="308.579884" y="133.336561" style="fill: #b5706b; stroke: #b5706b"/>
     <use xlink:href="#m771a0a5171" x="309.009923" y="152.52219" style="fill: #b5706b; stroke: #b5706b"/>
     <use xlink:href="#m771a0a5171" x="312.360212" y="154.400196" style="fill: #b5706b; stroke: #b5706b"/>
     <use xlink:href="#m771a0a5171" x="313.610586" y="158.727431" style="fill: #b5706b; stroke: #b5706b"/>
    </g>
   </g>
   <g id="PathCollection_10">
    <g clip-path="url(#pb30e0aad95)">
     <use xlink:href="#m1316eff80e" x="371.952232" y="138.239993" style="fill: #7794b4; stroke: #7794b4"/>
     <use xlink:href="#m1316eff80e" x="370.770867" y="153.441999" style="fill: #7794b4; stroke: #7794b4"/>
     <use xlink:href="#m1316eff80e" x="361.384588" y="84.769917" style="fill: #7794b4; stroke: #7794b4"/>
     <use xlink:href="#m1316eff80e" x="369.947777" y="145.074476" style="fill: #7794b4; stroke: #7794b4"/>
     <use xlink:href="#m1316eff80e" x="374.016721" y="76.574321" style="fill: #7794b4; stroke: #7794b4"/>
     <use xlink:href="#m1316eff80e" x="370.224097" y="126.175841" style="fill: #7794b4; stroke: #7794b4"/>
     <use xlink:href="#m1316eff80e" x="370.510733" y="127.237317" style="fill: #7794b4; stroke: #7794b4"/>
     <use xlink:href="#m1316eff80e" x="370.41556" y="141.289578" style="fill: #7794b4; stroke: #7794b4"/>
    </g>
   </g>
   <g id="PathCollection_11">
    <g clip-path="url(#pb30e0aad95)">
     <use xlink:href="#m32985bbe11" x="402.729149" y="155.881403" style="fill: #b0c8cf; stroke: #b0c8cf"/>
     <use xlink:href="#m32985bbe11" x="398.269321" y="146.700768" style="fill: #b0c8cf; stroke: #b0c8cf"/>
     <use xlink:href="#m32985bbe11" x="390.270683" y="125.093401" style="fill: #b0c8cf; stroke: #b0c8cf"/>
     <use xlink:href="#m32985bbe11" x="401.295417" y="137.29367" style="fill: #b0c8cf; stroke: #b0c8cf"/>
     <use xlink:href="#m32985bbe11" x="399.01265" y="110.338102" style="fill: #b0c8cf; stroke: #b0c8cf"/>
     <use xlink:href="#m32985bbe11" x="388.473411" y="139.539296" style="fill: #b0c8cf; stroke: #b0c8cf"/>
     <use xlink:href="#m32985bbe11" x="400.49076" y="117.675439" style="fill: #b0c8cf; stroke: #b0c8cf"/>
     <use xlink:href="#m32985bbe11" x="392.812027" y="140.061049" style="fill: #b0c8cf; stroke: #b0c8cf"/>
    </g>
   </g>
   <g id="PathCollection_12">
    <g clip-path="url(#pb30e0aad95)">
     <use xlink:href="#m771a0a5171" x="422.526572" y="149.66727" style="fill: #b5706b; stroke: #b5706b"/>
     <use xlink:href="#m771a0a5171" x="429.96806" y="161.259101" style="fill: #b5706b; stroke: #b5706b"/>
     <use xlink:href="#m771a0a5171" x="422.4658" y="125.601812" style="fill: #b5706b; stroke: #b5706b"/>
     <use xlink:href="#m771a0a5171" x="431.256123" y="154.303425" style="fill: #b5706b; stroke: #b5706b"/>
     <use xlink:href="#m771a0a5171" x="422.097394" y="123.021887" style="fill: #b5706b; stroke: #b5706b"/>
     <use xlink:href="#m771a0a5171" x="421.759913" y="137.716715" style="fill: #b5706b; stroke: #b5706b"/>
     <use xlink:href="#m771a0a5171" x="427.334982" y="141.609342" style="fill: #b5706b; stroke: #b5706b"/>
     <use xlink:href="#m771a0a5171" x="426.582377" y="151.837947" style="fill: #b5706b; stroke: #b5706b"/>
    </g>
   </g>
   <g id="LineCollection_1">
    <path d="M 44.518182 88.190483 
L 44.518182 85.272451 
" clip-path="url(#pb30e0aad95)" style="fill: none; stroke: #000000"/>
    <path d="M 152.736364 148.436414 
L 152.736364 54.238666 
" clip-path="url(#pb30e0aad95)" style="fill: none; stroke: #000000"/>
    <path d="M 260.954545 144.695622 
L 260.954545 113.313995 
" clip-path="url(#pb30e0aad95)" style="fill: none; stroke: #000000"/>
    <path d="M 369.172727 150.595711 
L 369.172727 97.605148 
" clip-path="url(#pb30e0aad95)" style="fill: none; stroke: #000000"/>
   </g>
   <g id="line2d_9">
    <defs>
     <path id="m6892e6f5cd" d="M 3 0 
L -3 -0 
" style="stroke: #000000"/>
    </defs>
    <g clip-path="url(#pb30e0aad95)">
     <use xlink:href="#m6892e6f5cd" x="44.518182" y="88.190483" style="stroke: #000000"/>
     <use xlink:href="#m6892e6f5cd" x="152.736364" y="148.436414" style="stroke: #000000"/>
     <use xlink:href="#m6892e6f5cd" x="260.954545" y="144.695622" style="stroke: #000000"/>
     <use xlink:href="#m6892e6f5cd" x="369.172727" y="150.595711" style="stroke: #000000"/>
    </g>
   </g>
   <g id="line2d_10">
    <g clip-path="url(#pb30e0aad95)">
     <use xlink:href="#m6892e6f5cd" x="44.518182" y="85.272451" style="stroke: #000000"/>
     <use xlink:href="#m6892e6f5cd" x="152.736364" y="54.238666" style="stroke: #000000"/>
     <use xlink:href="#m6892e6f5cd" x="260.954545" y="113.313995" style="stroke: #000000"/>
     <use xlink:href="#m6892e6f5cd" x="369.172727" y="97.605148" style="stroke: #000000"/>
    </g>
   </g>
   <g id="LineCollection_2">
    <path d="M 71.572727 133.220604 
L 71.572727 87.676506 
" clip-path="url(#pb30e0aad95)" style="fill: none; stroke: #000000"/>
    <path d="M 179.790909 146.68618 
L 179.790909 98.078608 
" clip-path="url(#pb30e0aad95)" style="fill: none; stroke: #000000"/>
    <path d="M 288.009091 147.595962 
L 288.009091 130.130534 
" clip-path="url(#pb30e0aad95)" style="fill: none; stroke: #000000"/>
    <path d="M 396.227273 148.320851 
L 396.227273 119.824926 
" clip-path="url(#pb30e0aad95)" style="fill: none; stroke: #000000"/>
   </g>
   <g id="line2d_11">
    <g clip-path="url(#pb30e0aad95)">
     <use xlink:href="#m6892e6f5cd" x="71.572727" y="133.220604" style="stroke: #000000"/>
     <use xlink:href="#m6892e6f5cd" x="179.790909" y="146.68618" style="stroke: #000000"/>
     <use xlink:href="#m6892e6f5cd" x="288.009091" y="147.595962" style="stroke: #000000"/>
     <use xlink:href="#m6892e6f5cd" x="396.227273" y="148.320851" style="stroke: #000000"/>
    </g>
   </g>
   <g id="line2d_12">
    <g clip-path="url(#pb30e0aad95)">
     <use xlink:href="#m6892e6f5cd" x="71.572727" y="87.676506" style="stroke: #000000"/>
     <use xlink:href="#m6892e6f5cd" x="179.790909" y="98.078608" style="stroke: #000000"/>
     <use xlink:href="#m6892e6f5cd" x="288.009091" y="130.130534" style="stroke: #000000"/>
     <use xlink:href="#m6892e6f5cd" x="396.227273" y="119.824926" style="stroke: #000000"/>
    </g>
   </g>
   <g id="LineCollection_3">
    <path d="M 98.627273 140.480242 
L 98.627273 119.963242 
" clip-path="url(#pb30e0aad95)" style="fill: none; stroke: #000000"/>
    <path d="M 206.845455 142.021699 
L 206.845455 96.683293 
" clip-path="url(#pb30e0aad95)" style="fill: none; stroke: #000000"/>
    <path d="M 315.063636 155.790612 
L 315.063636 129.285648 
" clip-path="url(#pb30e0aad95)" style="fill: none; stroke: #000000"/>
    <path d="M 423.281818 155.949353 
L 423.281818 130.305021 
" clip-path="url(#pb30e0aad95)" style="fill: none; stroke: #000000"/>
   </g>
   <g id="line2d_13">
    <g clip-path="url(#pb30e0aad95)">
     <use xlink:href="#m6892e6f5cd" x="98.627273" y="140.480242" style="stroke: #000000"/>
     <use xlink:href="#m6892e6f5cd" x="206.845455" y="142.021699" style="stroke: #000000"/>
     <use xlink:href="#m6892e6f5cd" x="315.063636" y="155.790612" style="stroke: #000000"/>
     <use xlink:href="#m6892e6f5cd" x="423.281818" y="155.949353" style="stroke: #000000"/>
    </g>
   </g>
   <g id="line2d_14">
    <g clip-path="url(#pb30e0aad95)">
     <use xlink:href="#m6892e6f5cd" x="98.627273" y="119.963242" style="stroke: #000000"/>
     <use xlink:href="#m6892e6f5cd" x="206.845455" y="96.683293" style="stroke: #000000"/>
     <use xlink:href="#m6892e6f5cd" x="315.063636" y="129.285648" style="stroke: #000000"/>
     <use xlink:href="#m6892e6f5cd" x="423.281818" y="130.305021" style="stroke: #000000"/>
    </g>
   </g>
   <g id="patch_15">
    <path d="M 10.7 173.52 
L 10.7 7.2 
" style="fill: none; stroke: #000000; stroke-width: 0.8; stroke-linejoin: miter; stroke-linecap: square"/>
   </g>
   <g id="patch_16">
    <path d="M 457.1 173.52 
L 457.1 7.2 
" style="fill: none; stroke: #000000; stroke-width: 0.8; stroke-linejoin: miter; stroke-linecap: square"/>
   </g>
   <g id="patch_17">
    <path d="M 10.7 173.52 
L 457.1 173.52 
" style="fill: none; stroke: #000000; stroke-width: 0.8; stroke-linejoin: miter; stroke-linecap: square"/>
   </g>
   <g id="patch_18">
    <path d="M 10.7 7.2 
L 457.1 7.2 
" style="fill: none; stroke: #000000; stroke-width: 0.8; stroke-linejoin: miter; stroke-linecap: square"/>
   </g>
   <g id="PathCollection_13">
    <defs>
     <path id="m3be8138d24" d="M 0 1.414214 
C 0.375054 1.414214 0.734797 1.265203 1 1 
C 1.265203 0.734797 1.414214 0.375054 1.414214 0 
C 1.414214 -0.375054 1.265203 -0.734797 1 -1 
C 0.734797 -1.265203 0.375054 -1.414214 0 -1.414214 
C -0.375054 -1.414214 -0.734797 -1.265203 -1 -1 
C -1.265203 -0.734797 -1.414214 -0.375054 -1.414214 0 
C -1.414214 0.375054 -1.265203 0.734797 -1 1 
C -0.734797 1.265203 -0.375054 1.414214 0 1.414214 
z
" style="stroke: #000000"/>
    </defs>
    <g clip-path="url(#pb30e0aad95)">
     <use xlink:href="#m3be8138d24" x="44.518182" y="86.731467" style="stroke: #000000"/>
     <use xlink:href="#m3be8138d24" x="152.736364" y="101.33754" style="stroke: #000000"/>
     <use xlink:href="#m3be8138d24" x="260.954545" y="129.004809" style="stroke: #000000"/>
     <use xlink:href="#m3be8138d24" x="369.172727" y="124.100429" style="stroke: #000000"/>
    </g>
   </g>
   <g id="PathCollection_14">
    <g clip-path="url(#pb30e0aad95)">
     <use xlink:href="#m3be8138d24" x="71.572727" y="110.448555" style="stroke: #000000"/>
     <use xlink:href="#m3be8138d24" x="179.790909" y="122.382394" style="stroke: #000000"/>
     <use xlink:href="#m3be8138d24" x="288.009091" y="138.863248" style="stroke: #000000"/>
     <use xlink:href="#m3be8138d24" x="396.227273" y="134.072888" style="stroke: #000000"/>
    </g>
   </g>
   <g id="PathCollection_15">
    <g clip-path="url(#pb30e0aad95)">
     <use xlink:href="#m3be8138d24" x="98.627273" y="130.221742" style="stroke: #000000"/>
     <use xlink:href="#m3be8138d24" x="206.845455" y="119.352496" style="stroke: #000000"/>
     <use xlink:href="#m3be8138d24" x="315.063636" y="142.53813" style="stroke: #000000"/>
     <use xlink:href="#m3be8138d24" x="423.281818" y="143.127187" style="stroke: #000000"/>
    </g>
   </g>
  </g>
 </g>
 <defs>
  <clipPath id="pb30e0aad95">
   <rect x="10.7" y="7.2" width="446.4" height="166.32"/>
  </clipPath>
 </defs>
</svg>
