<?xml version="1.0" encoding="utf-8" standalone="no"?>
<!DOCTYPE svg PUBLIC "-//W3C//DTD SVG 1.1//EN"
  "http://www.w3.org/Graphics/SVG/1.1/DTD/svg11.dtd">
<svg xmlns:xlink="http://www.w3.org/1999/xlink" width="464.3pt" height="184.22pt" viewBox="0 0 464.3 184.22" xmlns="http://www.w3.org/2000/svg" version="1.1">
 <metadata>
  <rdf:RDF xmlns:dc="http://purl.org/dc/elements/1.1/" xmlns:cc="http://creativecommons.org/ns#" xmlns:rdf="http://www.w3.org/1999/02/22-rdf-syntax-ns#">
   <cc:Work>
    <dc:type rdf:resource="http://purl.org/dc/dcmitype/StillImage"/>
    <dc:date>2024-11-09T22:39:27.926796</dc:date>
    <dc:format>image/svg+xml</dc:format>
    <dc:creator>
     <cc:Agent>
      <dc:title>Matplotlib v3.8.2, https://matplotlib.org/</dc:title>
     </cc:Agent>
    </dc:creator>
   </cc:Work>
  </rdf:RDF>
 </metadata>
 <defs>
  <style type="text/css">*{stroke-linejoin: round; stroke-linecap: butt}</style>
 </defs>
 <g id="figure_1">
  <g id="patch_1">
   <path d="M 0 184.22 
L 464.3 184.22 
L 464.3 0 
L 0 0 
z
" style="fill: #ffffff"/>
  </g>
  <g id="axes_1">
   <g id="patch_2">
    <path d="M 10.7 173.52 
L 457.1 173.52 
L 457.1 7.2 
L 10.7 7.2 
z
" style="fill: #ffffff"/>
   </g>
   <g id="patch_3">
    <path d="M 30.990909 173.52 
L 52.349761 173.52 
L 52.349761 55.73149 
L 30.990909 55.73149 
z
" clip-path="url(#p9cc22f79a0)" style="fill: #a9bed9"/>
   </g>
   <g id="patch_4">
    <path d="M 116.426316 173.52 
L 137.785167 173.52 
L 137.785167 117.114483 
L 116.426316 117.114483 
z
" clip-path="url(#p9cc22f79a0)" style="fill: #a9bed9"/>
   </g>
   <g id="patch_5">
    <path d="M 201.861722 173.52 
L 223.220574 173.52 
L 223.220574 118.22015 
L 201.861722 118.22015 
z
" clip-path="url(#p9cc22f79a0)" style="fill: #a9bed9"/>
   </g>
   <g id="patch_6">
    <path d="M 287.297129 173.52 
L 308.655981 173.52 
L 308.655981 139.34817 
L 287.297129 139.34817 
z
" clip-path="url(#p9cc22f79a0)" style="fill: #a9bed9"/>
   </g>
   <g id="patch_7">
    <path d="M 372.732536 173.52 
L 394.091388 173.52 
L 394.091388 140.733489 
L 372.732536 140.733489 
z
" clip-path="url(#p9cc22f79a0)" style="fill: #a9bed9"/>
   </g>
   <g id="patch_8">
    <path d="M 52.349761 173.52 
L 73.708612 173.52 
L 73.708612 63.485128 
L 52.349761 63.485128 
z
" clip-path="url(#p9cc22f79a0)" style="fill: #e3f0f6"/>
   </g>
   <g id="patch_9">
    <path d="M 137.785167 173.52 
L 159.144019 173.52 
L 159.144019 115.143215 
L 137.785167 115.143215 
z
" clip-path="url(#p9cc22f79a0)" style="fill: #e3f0f6"/>
   </g>
   <g id="patch_10">
    <path d="M 223.220574 173.52 
L 244.579426 173.52 
L 244.579426 120.627784 
L 223.220574 120.627784 
z
" clip-path="url(#p9cc22f79a0)" style="fill: #e3f0f6"/>
   </g>
   <g id="patch_11">
    <path d="M 308.655981 173.52 
L 330.014833 173.52 
L 330.014833 134.339426 
L 308.655981 134.339426 
z
" clip-path="url(#p9cc22f79a0)" style="fill: #e3f0f6"/>
   </g>
   <g id="patch_12">
    <path d="M 394.091388 173.52 
L 415.450239 173.52 
L 415.450239 143.004566 
L 394.091388 143.004566 
z
" clip-path="url(#p9cc22f79a0)" style="fill: #e3f0f6"/>
   </g>
   <g id="patch_13">
    <path d="M 73.708612 173.52 
L 95.067464 173.52 
L 95.067464 122.046747 
L 73.708612 122.046747 
z
" clip-path="url(#p9cc22f79a0)" style="fill: #e8a19d"/>
   </g>
   <g id="patch_14">
    <path d="M 159.144019 173.52 
L 180.502871 173.52 
L 180.502871 112.489719 
L 159.144019 112.489719 
z
" clip-path="url(#p9cc22f79a0)" style="fill: #e8a19d"/>
   </g>
   <g id="patch_15">
    <path d="M 244.579426 173.52 
L 265.938278 173.52 
L 265.938278 126.606595 
L 244.579426 126.606595 
z
" clip-path="url(#p9cc22f79a0)" style="fill: #e8a19d"/>
   </g>
   <g id="patch_16">
    <path d="M 330.014833 173.52 
L 351.373684 173.52 
L 351.373684 142.430318 
L 330.014833 142.430318 
z
" clip-path="url(#p9cc22f79a0)" style="fill: #e8a19d"/>
   </g>
   <g id="patch_17">
    <path d="M 415.450239 173.52 
L 436.809091 173.52 
L 436.809091 143.539769 
L 415.450239 143.539769 
z
" clip-path="url(#p9cc22f79a0)" style="fill: #e8a19d"/>
   </g>
   <g id="matplotlib.axis_1">
    <g id="xtick_1">
     <g id="line2d_1">
      <defs>
       <path id="m1814bdc26a" d="M 0 0 
L 0 3.5 
" style="stroke: #000000; stroke-width: 0.8"/>
      </defs>
      <g>
       <use xlink:href="#m1814bdc26a" x="63.029187" y="173.52" style="stroke: #000000; stroke-width: 0.8"/>
      </g>
     </g>
    </g>
    <g id="xtick_2">
     <g id="line2d_2">
      <g>
       <use xlink:href="#m1814bdc26a" x="148.464593" y="173.52" style="stroke: #000000; stroke-width: 0.8"/>
      </g>
     </g>
    </g>
    <g id="xtick_3">
     <g id="line2d_3">
      <g>
       <use xlink:href="#m1814bdc26a" x="233.9" y="173.52" style="stroke: #000000; stroke-width: 0.8"/>
      </g>
     </g>
    </g>
    <g id="xtick_4">
     <g id="line2d_4">
      <g>
       <use xlink:href="#m1814bdc26a" x="319.335407" y="173.52" style="stroke: #000000; stroke-width: 0.8"/>
      </g>
     </g>
    </g>
    <g id="xtick_5">
     <g id="line2d_5">
      <g>
       <use xlink:href="#m1814bdc26a" x="404.770813" y="173.52" style="stroke: #000000; stroke-width: 0.8"/>
      </g>
     </g>
    </g>
   </g>
   <g id="matplotlib.axis_2">
    <g id="ytick_1">
     <g id="line2d_6">
      <defs>
       <path id="m2005063f78" d="M 0 0 
L -3.5 0 
" style="stroke: #000000; stroke-width: 0.8"/>
      </defs>
      <g>
       <use xlink:href="#m2005063f78" x="10.7" y="173.52" style="stroke: #000000; stroke-width: 0.8"/>
      </g>
     </g>
    </g>
    <g id="ytick_2">
     <g id="line2d_7">
      <g>
       <use xlink:href="#m2005063f78" x="10.7" y="140.256" style="stroke: #000000; stroke-width: 0.8"/>
      </g>
     </g>
    </g>
    <g id="ytick_3">
     <g id="line2d_8">
      <g>
       <use xlink:href="#m2005063f78" x="10.7" y="106.992" style="stroke: #000000; stroke-width: 0.8"/>
      </g>
     </g>
    </g>
    <g id="ytick_4">
     <g id="line2d_9">
      <g>
       <use xlink:href="#m2005063f78" x="10.7" y="73.728" style="stroke: #000000; stroke-width: 0.8"/>
      </g>
     </g>
    </g>
    <g id="ytick_5">
     <g id="line2d_10">
      <g>
       <use xlink:href="#m2005063f78" x="10.7" y="40.464" style="stroke: #000000; stroke-width: 0.8"/>
      </g>
     </g>
    </g>
    <g id="ytick_6">
     <g id="line2d_11">
      <g>
       <use xlink:href="#m2005063f78" x="10.7" y="7.2" style="stroke: #000000; stroke-width: 0.8"/>
      </g>
     </g>
    </g>
   </g>
   <g id="PathCollection_1">
    <defs>
     <path id="m6df4d69010" d="M 0 3 
C 0.795609 3 1.55874 2.683901 2.12132 2.12132 
C 2.683901 1.55874 3 0.795609 3 0 
C 3 -0.795609 2.683901 -1.55874 2.12132 -2.12132 
C 1.55874 -2.683901 0.795609 -3 0 -3 
C -0.795609 -3 -1.55874 -2.683901 -2.12132 -2.12132 
C -2.683901 -1.55874 -3 -0.795609 -3 0 
C -3 0.795609 -2.683901 1.55874 -2.12132 2.12132 
C -1.55874 2.683901 -0.795609 3 0 3 
z
" style="stroke: #7794b4"/>
    </defs>
    <g clip-path="url(#p9cc22f79a0)">
     <use xlink:href="#m6df4d69010" x="42.192601" y="53.939647" style="fill: #7794b4; stroke: #7794b4"/>
     <use xlink:href="#m6df4d69010" x="41.231299" y="55.495962" style="fill: #7794b4; stroke: #7794b4"/>
     <use xlink:href="#m6df4d69010" x="37.633025" y="60.036225" style="fill: #7794b4; stroke: #7794b4"/>
     <use xlink:href="#m6df4d69010" x="37.566615" y="57.00348" style="fill: #7794b4; stroke: #7794b4"/>
     <use xlink:href="#m6df4d69010" x="45.161149" y="61.312204" style="fill: #7794b4; stroke: #7794b4"/>
     <use xlink:href="#m6df4d69010" x="36.790089" y="54.170408" style="fill: #7794b4; stroke: #7794b4"/>
     <use xlink:href="#m6df4d69010" x="41.56129" y="49.710357" style="fill: #7794b4; stroke: #7794b4"/>
     <use xlink:href="#m6df4d69010" x="36.441487" y="54.183628" style="fill: #7794b4; stroke: #7794b4"/>
    </g>
   </g>
   <g id="PathCollection_2">
    <defs>
     <path id="m4bb3c50a3c" d="M 0 3 
C 0.795609 3 1.55874 2.683901 2.12132 2.12132 
C 2.683901 1.55874 3 0.795609 3 0 
C 3 -0.795609 2.683901 -1.55874 2.12132 -2.12132 
C 1.55874 -2.683901 0.795609 -3 0 -3 
C -0.795609 -3 -1.55874 -2.683901 -2.12132 -2.12132 
C -2.683901 -1.55874 -3 -0.795609 -3 0 
C -3 0.795609 -2.683901 1.55874 -2.12132 2.12132 
C -1.55874 2.683901 -0.795609 3 0 3 
z
" style="stroke: #b0c8cf"/>
    </defs>
    <g clip-path="url(#p9cc22f79a0)">
     <use xlink:href="#m4bb3c50a3c" x="65.721006" y="40.603835" style="fill: #b0c8cf; stroke: #b0c8cf"/>
     <use xlink:href="#m4bb3c50a3c" x="56.960069" y="131.161723" style="fill: #b0c8cf; stroke: #b0c8cf"/>
     <use xlink:href="#m4bb3c50a3c" x="68.29357" y="40.587593" style="fill: #b0c8cf; stroke: #b0c8cf"/>
     <use xlink:href="#m4bb3c50a3c" x="60.15401" y="40.671104" style="fill: #b0c8cf; stroke: #b0c8cf"/>
     <use xlink:href="#m4bb3c50a3c" x="62.537082" y="40.531832" style="fill: #b0c8cf; stroke: #b0c8cf"/>
     <use xlink:href="#m4bb3c50a3c" x="68.485341" y="110.248023" style="fill: #b0c8cf; stroke: #b0c8cf"/>
     <use xlink:href="#m4bb3c50a3c" x="69.104509" y="40.591796" style="fill: #b0c8cf; stroke: #b0c8cf"/>
    </g>
   </g>
   <g id="PathCollection_3">
    <defs>
     <path id="m5507bd2b66" d="M 0 3 
C 0.795609 3 1.55874 2.683901 2.12132 2.12132 
C 2.683901 1.55874 3 0.795609 3 0 
C 3 -0.795609 2.683901 -1.55874 2.12132 -2.12132 
C 1.55874 -2.683901 0.795609 -3 0 -3 
C -0.795609 -3 -1.55874 -2.683901 -2.12132 -2.12132 
C -2.683901 -1.55874 -3 -0.795609 -3 0 
C -3 0.795609 -2.683901 1.55874 -2.12132 2.12132 
C -1.55874 2.683901 -0.795609 3 0 3 
z
" style="stroke: #b5706b"/>
    </defs>
    <g clip-path="url(#p9cc22f79a0)">
     <use xlink:href="#m5507bd2b66" x="88.92733" y="136.359632" style="fill: #b5706b; stroke: #b5706b"/>
     <use xlink:href="#m5507bd2b66" x="86.861226" y="132.292586" style="fill: #b5706b; stroke: #b5706b"/>
     <use xlink:href="#m5507bd2b66" x="90.184559" y="119.894336" style="fill: #b5706b; stroke: #b5706b"/>
     <use xlink:href="#m5507bd2b66" x="90.101284" y="118.107156" style="fill: #b5706b; stroke: #b5706b"/>
     <use xlink:href="#m5507bd2b66" x="80.755247" y="127.241519" style="fill: #b5706b; stroke: #b5706b"/>
     <use xlink:href="#m5507bd2b66" x="80.130031" y="136.097251" style="fill: #b5706b; stroke: #b5706b"/>
     <use xlink:href="#m5507bd2b66" x="87.733438" y="90.054539" style="fill: #b5706b; stroke: #b5706b"/>
     <use xlink:href="#m5507bd2b66" x="88.34561" y="116.326947" style="fill: #b5706b; stroke: #b5706b"/>
    </g>
   </g>
   <g id="PathCollection_4">
    <g clip-path="url(#p9cc22f79a0)">
     <use xlink:href="#m6df4d69010" x="123.562904" y="103.121252" style="fill: #7794b4; stroke: #7794b4"/>
     <use xlink:href="#m6df4d69010" x="125.695289" y="133.988391" style="fill: #7794b4; stroke: #7794b4"/>
     <use xlink:href="#m6df4d69010" x="124.684523" y="116.758396" style="fill: #7794b4; stroke: #7794b4"/>
     <use xlink:href="#m6df4d69010" x="129.371545" y="133.142449" style="fill: #7794b4; stroke: #7794b4"/>
     <use xlink:href="#m6df4d69010" x="125.131279" y="137.79287" style="fill: #7794b4; stroke: #7794b4"/>
     <use xlink:href="#m6df4d69010" x="132.469583" y="131.438927" style="fill: #7794b4; stroke: #7794b4"/>
     <use xlink:href="#m6df4d69010" x="130.773971" y="48.207336" style="fill: #7794b4; stroke: #7794b4"/>
     <use xlink:href="#m6df4d69010" x="131.371532" y="132.466261" style="fill: #7794b4; stroke: #7794b4"/>
    </g>
   </g>
   <g id="PathCollection_5">
    <g clip-path="url(#p9cc22f79a0)">
     <use xlink:href="#m4bb3c50a3c" x="149.96479" y="120.498917" style="fill: #b0c8cf; stroke: #b0c8cf"/>
     <use xlink:href="#m4bb3c50a3c" x="154.151958" y="137.488694" style="fill: #b0c8cf; stroke: #b0c8cf"/>
     <use xlink:href="#m4bb3c50a3c" x="142.64565" y="131.969019" style="fill: #b0c8cf; stroke: #b0c8cf"/>
     <use xlink:href="#m4bb3c50a3c" x="151.611891" y="135.943438" style="fill: #b0c8cf; stroke: #b0c8cf"/>
     <use xlink:href="#m4bb3c50a3c" x="154.2546" y="80.465018" style="fill: #b0c8cf; stroke: #b0c8cf"/>
     <use xlink:href="#m4bb3c50a3c" x="152.925386" y="131.696443" style="fill: #b0c8cf; stroke: #b0c8cf"/>
     <use xlink:href="#m4bb3c50a3c" x="142.122522" y="50.749659" style="fill: #b0c8cf; stroke: #b0c8cf"/>
     <use xlink:href="#m4bb3c50a3c" x="146.327527" y="132.334508" style="fill: #b0c8cf; stroke: #b0c8cf"/>
    </g>
   </g>
   <g id="PathCollection_6">
    <g clip-path="url(#p9cc22f79a0)">
     <use xlink:href="#m5507bd2b66" x="172.551267" y="113.494934" style="fill: #b5706b; stroke: #b5706b"/>
     <use xlink:href="#m5507bd2b66" x="176.104553" y="138.814454" style="fill: #b5706b; stroke: #b5706b"/>
     <use xlink:href="#m5507bd2b66" x="175.689274" y="117.352446" style="fill: #b5706b; stroke: #b5706b"/>
     <use xlink:href="#m5507bd2b66" x="170.280847" y="134.640561" style="fill: #b5706b; stroke: #b5706b"/>
     <use xlink:href="#m5507bd2b66" x="176.184465" y="83.383045" style="fill: #b5706b; stroke: #b5706b"/>
     <use xlink:href="#m5507bd2b66" x="173.174161" y="120.548754" style="fill: #b5706b; stroke: #b5706b"/>
     <use xlink:href="#m5507bd2b66" x="172.87284" y="61.232849" style="fill: #b5706b; stroke: #b5706b"/>
     <use xlink:href="#m5507bd2b66" x="163.53119" y="130.450687" style="fill: #b5706b; stroke: #b5706b"/>
    </g>
   </g>
   <g id="PathCollection_7">
    <g clip-path="url(#p9cc22f79a0)">
     <use xlink:href="#m6df4d69010" x="214.252349" y="145.751139" style="fill: #7794b4; stroke: #7794b4"/>
     <use xlink:href="#m6df4d69010" x="207.489398" y="120.08038" style="fill: #7794b4; stroke: #7794b4"/>
     <use xlink:href="#m6df4d69010" x="215.787063" y="132.613226" style="fill: #7794b4; stroke: #7794b4"/>
     <use xlink:href="#m6df4d69010" x="208.848263" y="124.677145" style="fill: #7794b4; stroke: #7794b4"/>
     <use xlink:href="#m6df4d69010" x="215.948426" y="125.089052" style="fill: #7794b4; stroke: #7794b4"/>
     <use xlink:href="#m6df4d69010" x="217.212621" y="133.608068" style="fill: #7794b4; stroke: #7794b4"/>
     <use xlink:href="#m6df4d69010" x="207.132758" y="23.33582" style="fill: #7794b4; stroke: #7794b4"/>
     <use xlink:href="#m6df4d69010" x="210.751065" y="140.606329" style="fill: #7794b4; stroke: #7794b4"/>
    </g>
   </g>
   <g id="PathCollection_8">
    <g clip-path="url(#p9cc22f79a0)">
     <use xlink:href="#m4bb3c50a3c" x="239.193181" y="150.107846" style="fill: #b0c8cf; stroke: #b0c8cf"/>
     <use xlink:href="#m4bb3c50a3c" x="232.565761" y="119.158235" style="fill: #b0c8cf; stroke: #b0c8cf"/>
     <use xlink:href="#m4bb3c50a3c" x="231.528365" y="138.825101" style="fill: #b0c8cf; stroke: #b0c8cf"/>
     <use xlink:href="#m4bb3c50a3c" x="234.803243" y="146.580724" style="fill: #b0c8cf; stroke: #b0c8cf"/>
     <use xlink:href="#m4bb3c50a3c" x="235.001345" y="121.547538" style="fill: #b0c8cf; stroke: #b0c8cf"/>
     <use xlink:href="#m4bb3c50a3c" x="234.008575" y="96.363289" style="fill: #b0c8cf; stroke: #b0c8cf"/>
     <use xlink:href="#m4bb3c50a3c" x="228.818919" y="44.634293" style="fill: #b0c8cf; stroke: #b0c8cf"/>
     <use xlink:href="#m4bb3c50a3c" x="231.958039" y="147.805259" style="fill: #b0c8cf; stroke: #b0c8cf"/>
    </g>
   </g>
   <g id="PathCollection_9">
    <g clip-path="url(#p9cc22f79a0)">
     <use xlink:href="#m5507bd2b66" x="251.181925" y="152.830435" style="fill: #b5706b; stroke: #b5706b"/>
     <use xlink:href="#m5507bd2b66" x="255.048678" y="131.984611" style="fill: #b5706b; stroke: #b5706b"/>
     <use xlink:href="#m5507bd2b66" x="259.859711" y="124.857895" style="fill: #b5706b; stroke: #b5706b"/>
     <use xlink:href="#m5507bd2b66" x="252.68237" y="134.390251" style="fill: #b5706b; stroke: #b5706b"/>
     <use xlink:href="#m5507bd2b66" x="260.609416" y="137.787604" style="fill: #b5706b; stroke: #b5706b"/>
     <use xlink:href="#m5507bd2b66" x="256.590441" y="123.377659" style="fill: #b5706b; stroke: #b5706b"/>
     <use xlink:href="#m5507bd2b66" x="249.825662" y="70.244194" style="fill: #b5706b; stroke: #b5706b"/>
     <use xlink:href="#m5507bd2b66" x="250.027835" y="137.380102" style="fill: #b5706b; stroke: #b5706b"/>
    </g>
   </g>
   <g id="PathCollection_10">
    <g clip-path="url(#p9cc22f79a0)">
     <use xlink:href="#m6df4d69010" x="302.723559" y="110.591889" style="fill: #7794b4; stroke: #7794b4"/>
     <use xlink:href="#m6df4d69010" x="299.60071" y="145.777007" style="fill: #7794b4; stroke: #7794b4"/>
     <use xlink:href="#m6df4d69010" x="299.063536" y="148.84735" style="fill: #7794b4; stroke: #7794b4"/>
     <use xlink:href="#m6df4d69010" x="301.630643" y="144.165436" style="fill: #7794b4; stroke: #7794b4"/>
     <use xlink:href="#m6df4d69010" x="299.300185" y="136.112569" style="fill: #7794b4; stroke: #7794b4"/>
     <use xlink:href="#m6df4d69010" x="299.274111" y="145.837862" style="fill: #7794b4; stroke: #7794b4"/>
     <use xlink:href="#m6df4d69010" x="293.162382" y="148.587146" style="fill: #7794b4; stroke: #7794b4"/>
     <use xlink:href="#m6df4d69010" x="302.775061" y="134.866092" style="fill: #7794b4; stroke: #7794b4"/>
    </g>
   </g>
   <g id="PathCollection_11">
    <g clip-path="url(#p9cc22f79a0)">
     <use xlink:href="#m4bb3c50a3c" x="319.817377" y="75.332622" style="fill: #b0c8cf; stroke: #b0c8cf"/>
     <use xlink:href="#m4bb3c50a3c" x="317.339969" y="125.975905" style="fill: #b0c8cf; stroke: #b0c8cf"/>
     <use xlink:href="#m4bb3c50a3c" x="324.801357" y="153.261162" style="fill: #b0c8cf; stroke: #b0c8cf"/>
     <use xlink:href="#m4bb3c50a3c" x="325.142264" y="129.921198" style="fill: #b0c8cf; stroke: #b0c8cf"/>
     <use xlink:href="#m4bb3c50a3c" x="320.331165" y="150.842692" style="fill: #b0c8cf; stroke: #b0c8cf"/>
     <use xlink:href="#m4bb3c50a3c" x="322.451451" y="145.580097" style="fill: #b0c8cf; stroke: #b0c8cf"/>
     <use xlink:href="#m4bb3c50a3c" x="317.183763" y="151.261962" style="fill: #b0c8cf; stroke: #b0c8cf"/>
     <use xlink:href="#m4bb3c50a3c" x="317.289652" y="142.539752" style="fill: #b0c8cf; stroke: #b0c8cf"/>
    </g>
   </g>
   <g id="PathCollection_12">
    <g clip-path="url(#p9cc22f79a0)">
     <use xlink:href="#m5507bd2b66" x="340.414937" y="96.464858" style="fill: #b5706b; stroke: #b5706b"/>
     <use xlink:href="#m5507bd2b66" x="340.322709" y="146.04263" style="fill: #b5706b; stroke: #b5706b"/>
     <use xlink:href="#m5507bd2b66" x="335.168206" y="154.352512" style="fill: #b5706b; stroke: #b5706b"/>
     <use xlink:href="#m5507bd2b66" x="347.064934" y="151.155785" style="fill: #b5706b; stroke: #b5706b"/>
     <use xlink:href="#m5507bd2b66" x="342.962116" y="151.899009" style="fill: #b5706b; stroke: #b5706b"/>
     <use xlink:href="#m5507bd2b66" x="336.003241" y="151.27675" style="fill: #b5706b; stroke: #b5706b"/>
     <use xlink:href="#m5507bd2b66" x="336.834952" y="157.89829" style="fill: #b5706b; stroke: #b5706b"/>
     <use xlink:href="#m5507bd2b66" x="344.568925" y="130.352703" style="fill: #b5706b; stroke: #b5706b"/>
    </g>
   </g>
   <g id="PathCollection_13">
    <g clip-path="url(#p9cc22f79a0)">
     <use xlink:href="#m6df4d69010" x="384.364081" y="144.269238" style="fill: #7794b4; stroke: #7794b4"/>
     <use xlink:href="#m6df4d69010" x="385.12315" y="150.846915" style="fill: #7794b4; stroke: #7794b4"/>
     <use xlink:href="#m6df4d69010" x="384.985632" y="151.716864" style="fill: #7794b4; stroke: #7794b4"/>
     <use xlink:href="#m6df4d69010" x="383.661105" y="119.224235" style="fill: #7794b4; stroke: #7794b4"/>
     <use xlink:href="#m6df4d69010" x="389.283027" y="120.827735" style="fill: #7794b4; stroke: #7794b4"/>
     <use xlink:href="#m6df4d69010" x="379.143459" y="156.180848" style="fill: #7794b4; stroke: #7794b4"/>
     <use xlink:href="#m6df4d69010" x="384.668924" y="147.533164" style="fill: #7794b4; stroke: #7794b4"/>
     <use xlink:href="#m6df4d69010" x="385.02868" y="135.268907" style="fill: #7794b4; stroke: #7794b4"/>
    </g>
   </g>
   <g id="PathCollection_14">
    <g clip-path="url(#p9cc22f79a0)">
     <use xlink:href="#m4bb3c50a3c" x="405.421061" y="154.469948" style="fill: #b0c8cf; stroke: #b0c8cf"/>
     <use xlink:href="#m4bb3c50a3c" x="406.734694" y="149.163551" style="fill: #b0c8cf; stroke: #b0c8cf"/>
     <use xlink:href="#m4bb3c50a3c" x="406.58213" y="126.824912" style="fill: #b0c8cf; stroke: #b0c8cf"/>
     <use xlink:href="#m4bb3c50a3c" x="401.615188" y="130.408119" style="fill: #b0c8cf; stroke: #b0c8cf"/>
     <use xlink:href="#m4bb3c50a3c" x="402.760698" y="140.203966" style="fill: #b0c8cf; stroke: #b0c8cf"/>
     <use xlink:href="#m4bb3c50a3c" x="401.48255" y="159.151521" style="fill: #b0c8cf; stroke: #b0c8cf"/>
     <use xlink:href="#m4bb3c50a3c" x="409.763301" y="134.204611" style="fill: #b0c8cf; stroke: #b0c8cf"/>
     <use xlink:href="#m4bb3c50a3c" x="399.750327" y="149.609908" style="fill: #b0c8cf; stroke: #b0c8cf"/>
    </g>
   </g>
   <g id="PathCollection_15">
    <g clip-path="url(#p9cc22f79a0)">
     <use xlink:href="#m5507bd2b66" x="427.786763" y="132.077884" style="fill: #b5706b; stroke: #b5706b"/>
     <use xlink:href="#m5507bd2b66" x="420.123108" y="146.375653" style="fill: #b5706b; stroke: #b5706b"/>
     <use xlink:href="#m5507bd2b66" x="420.332982" y="138.548774" style="fill: #b5706b; stroke: #b5706b"/>
     <use xlink:href="#m5507bd2b66" x="426.275228" y="133.444686" style="fill: #b5706b; stroke: #b5706b"/>
     <use xlink:href="#m5507bd2b66" x="430.198039" y="147.492951" style="fill: #b5706b; stroke: #b5706b"/>
     <use xlink:href="#m5507bd2b66" x="427.625094" y="156.563481" style="fill: #b5706b; stroke: #b5706b"/>
     <use xlink:href="#m5507bd2b66" x="424.451578" y="141.409205" style="fill: #b5706b; stroke: #b5706b"/>
     <use xlink:href="#m5507bd2b66" x="424.361656" y="152.405509" style="fill: #b5706b; stroke: #b5706b"/>
    </g>
   </g>
   <g id="LineCollection_1">
    <path d="M 41.670335 59.189201 
L 41.670335 52.273778 
" clip-path="url(#p9cc22f79a0)" style="fill: none; stroke: #000000"/>
    <path d="M 127.105742 145.297409 
L 127.105742 88.931558 
" clip-path="url(#p9cc22f79a0)" style="fill: none; stroke: #000000"/>
    <path d="M 212.541148 154.959803 
L 212.541148 81.480496 
" clip-path="url(#p9cc22f79a0)" style="fill: none; stroke: #000000"/>
    <path d="M 297.976555 151.284078 
L 297.976555 127.412263 
" clip-path="url(#p9cc22f79a0)" style="fill: none; stroke: #000000"/>
    <path d="M 383.411962 154.004805 
L 383.411962 127.462173 
" clip-path="url(#p9cc22f79a0)" style="fill: none; stroke: #000000"/>
   </g>
   <g id="line2d_12">
    <defs>
     <path id="m5bbd7bb02b" d="M 3 0 
L -3 -0 
" style="stroke: #000000"/>
    </defs>
    <g clip-path="url(#p9cc22f79a0)">
     <use xlink:href="#m5bbd7bb02b" x="41.670335" y="59.189201" style="stroke: #000000"/>
     <use xlink:href="#m5bbd7bb02b" x="127.105742" y="145.297409" style="stroke: #000000"/>
     <use xlink:href="#m5bbd7bb02b" x="212.541148" y="154.959803" style="stroke: #000000"/>
     <use xlink:href="#m5bbd7bb02b" x="297.976555" y="151.284078" style="stroke: #000000"/>
     <use xlink:href="#m5bbd7bb02b" x="383.411962" y="154.004805" style="stroke: #000000"/>
    </g>
   </g>
   <g id="line2d_13">
    <g clip-path="url(#p9cc22f79a0)">
     <use xlink:href="#m5bbd7bb02b" x="41.670335" y="52.273778" style="stroke: #000000"/>
     <use xlink:href="#m5bbd7bb02b" x="127.105742" y="88.931558" style="stroke: #000000"/>
     <use xlink:href="#m5bbd7bb02b" x="212.541148" y="81.480496" style="stroke: #000000"/>
     <use xlink:href="#m5bbd7bb02b" x="297.976555" y="127.412263" style="stroke: #000000"/>
     <use xlink:href="#m5bbd7bb02b" x="383.411962" y="127.462173" style="stroke: #000000"/>
    </g>
   </g>
   <g id="LineCollection_2">
    <path d="M 63.029187 100.103191 
L 63.029187 26.867064 
" clip-path="url(#p9cc22f79a0)" style="fill: none; stroke: #000000"/>
    <path d="M 148.464593 145.064818 
L 148.464593 85.221612 
" clip-path="url(#p9cc22f79a0)" style="fill: none; stroke: #000000"/>
    <path d="M 233.9 154.129965 
L 233.9 87.125604 
" clip-path="url(#p9cc22f79a0)" style="fill: none; stroke: #000000"/>
    <path d="M 319.335407 158.530418 
L 319.335407 110.148435 
" clip-path="url(#p9cc22f79a0)" style="fill: none; stroke: #000000"/>
    <path d="M 404.770813 154.069584 
L 404.770813 131.939548 
" clip-path="url(#p9cc22f79a0)" style="fill: none; stroke: #000000"/>
   </g>
   <g id="line2d_14">
    <g clip-path="url(#p9cc22f79a0)">
     <use xlink:href="#m5bbd7bb02b" x="63.029187" y="100.103191" style="stroke: #000000"/>
     <use xlink:href="#m5bbd7bb02b" x="148.464593" y="145.064818" style="stroke: #000000"/>
     <use xlink:href="#m5bbd7bb02b" x="233.9" y="154.129965" style="stroke: #000000"/>
     <use xlink:href="#m5bbd7bb02b" x="319.335407" y="158.530418" style="stroke: #000000"/>
     <use xlink:href="#m5bbd7bb02b" x="404.770813" y="154.069584" style="stroke: #000000"/>
    </g>
   </g>
   <g id="line2d_15">
    <g clip-path="url(#p9cc22f79a0)">
     <use xlink:href="#m5bbd7bb02b" x="63.029187" y="26.867064" style="stroke: #000000"/>
     <use xlink:href="#m5bbd7bb02b" x="148.464593" y="85.221612" style="stroke: #000000"/>
     <use xlink:href="#m5bbd7bb02b" x="233.9" y="87.125604" style="stroke: #000000"/>
     <use xlink:href="#m5bbd7bb02b" x="319.335407" y="110.148435" style="stroke: #000000"/>
     <use xlink:href="#m5bbd7bb02b" x="404.770813" y="131.939548" style="stroke: #000000"/>
    </g>
   </g>
   <g id="LineCollection_3">
    <path d="M 84.388038 136.235691 
L 84.388038 107.857804 
" clip-path="url(#p9cc22f79a0)" style="fill: none; stroke: #000000"/>
    <path d="M 169.823445 137.664899 
L 169.823445 87.314538 
" clip-path="url(#p9cc22f79a0)" style="fill: none; stroke: #000000"/>
    <path d="M 255.258852 149.542608 
L 255.258852 103.670582 
" clip-path="url(#p9cc22f79a0)" style="fill: none; stroke: #000000"/>
    <path d="M 340.694258 161.460515 
L 340.694258 123.400121 
" clip-path="url(#p9cc22f79a0)" style="fill: none; stroke: #000000"/>
    <path d="M 426.129665 151.714602 
L 426.129665 135.364936 
" clip-path="url(#p9cc22f79a0)" style="fill: none; stroke: #000000"/>
   </g>
   <g id="line2d_16">
    <g clip-path="url(#p9cc22f79a0)">
     <use xlink:href="#m5bbd7bb02b" x="84.388038" y="136.235691" style="stroke: #000000"/>
     <use xlink:href="#m5bbd7bb02b" x="169.823445" y="137.664899" style="stroke: #000000"/>
     <use xlink:href="#m5bbd7bb02b" x="255.258852" y="149.542608" style="stroke: #000000"/>
     <use xlink:href="#m5bbd7bb02b" x="340.694258" y="161.460515" style="stroke: #000000"/>
     <use xlink:href="#m5bbd7bb02b" x="426.129665" y="151.714602" style="stroke: #000000"/>
    </g>
   </g>
   <g id="line2d_17">
    <g clip-path="url(#p9cc22f79a0)">
     <use xlink:href="#m5bbd7bb02b" x="84.388038" y="107.857804" style="stroke: #000000"/>
     <use xlink:href="#m5bbd7bb02b" x="169.823445" y="87.314538" style="stroke: #000000"/>
     <use xlink:href="#m5bbd7bb02b" x="255.258852" y="103.670582" style="stroke: #000000"/>
     <use xlink:href="#m5bbd7bb02b" x="340.694258" y="123.400121" style="stroke: #000000"/>
     <use xlink:href="#m5bbd7bb02b" x="426.129665" y="135.364936" style="stroke: #000000"/>
    </g>
   </g>
   <g id="patch_18">
    <path d="M 10.7 173.52 
L 10.7 7.2 
" style="fill: none; stroke: #000000; stroke-width: 0.8; stroke-linejoin: miter; stroke-linecap: square"/>
   </g>
   <g id="patch_19">
    <path d="M 457.1 173.52 
L 457.1 7.2 
" style="fill: none; stroke: #000000; stroke-width: 0.8; stroke-linejoin: miter; stroke-linecap: square"/>
   </g>
   <g id="patch_20">
    <path d="M 10.7 173.52 
L 457.1 173.52 
" style="fill: none; stroke: #000000; stroke-width: 0.8; stroke-linejoin: miter; stroke-linecap: square"/>
   </g>
   <g id="patch_21">
    <path d="M 10.7 7.2 
L 457.1 7.2 
" style="fill: none; stroke: #000000; stroke-width: 0.8; stroke-linejoin: miter; stroke-linecap: square"/>
   </g>
   <g id="PathCollection_16">
    <defs>
     <path id="m4feda94def" d="M 0 1.414214 
C 0.375054 1.414214 0.734797 1.265203 1 1 
C 1.265203 0.734797 1.414214 0.375054 1.414214 0 
C 1.414214 -0.375054 1.265203 -0.734797 1 -1 
C 0.734797 -1.265203 0.375054 -1.414214 0 -1.414214 
C -0.375054 -1.414214 -0.734797 -1.265203 -1 -1 
C -1.265203 -0.734797 -1.414214 -0.375054 -1.414214 0 
C -1.414214 0.375054 -1.265203 0.734797 -1 1 
C -0.734797 1.265203 -0.375054 1.414214 0 1.414214 
z
" style="stroke: #000000"/>
    </defs>
    <g clip-path="url(#p9cc22f79a0)">
     <use xlink:href="#m4feda94def" x="41.670335" y="55.73149" style="stroke: #000000"/>
     <use xlink:href="#m4feda94def" x="127.105742" y="117.114483" style="stroke: #000000"/>
     <use xlink:href="#m4feda94def" x="212.541148" y="118.22015" style="stroke: #000000"/>
     <use xlink:href="#m4feda94def" x="297.976555" y="139.34817" style="stroke: #000000"/>
     <use xlink:href="#m4feda94def" x="383.411962" y="140.733489" style="stroke: #000000"/>
    </g>
   </g>
   <g id="PathCollection_17">
    <g clip-path="url(#p9cc22f79a0)">
     <use xlink:href="#m4feda94def" x="63.029187" y="63.485128" style="stroke: #000000"/>
     <use xlink:href="#m4feda94def" x="148.464593" y="115.143215" style="stroke: #000000"/>
     <use xlink:href="#m4feda94def" x="233.9" y="120.627784" style="stroke: #000000"/>
     <use xlink:href="#m4feda94def" x="319.335407" y="134.339426" style="stroke: #000000"/>
     <use xlink:href="#m4feda94def" x="404.770813" y="143.004566" style="stroke: #000000"/>
    </g>
   </g>
   <g id="PathCollection_18">
    <g clip-path="url(#p9cc22f79a0)">
     <use xlink:href="#m4feda94def" x="84.388038" y="122.046747" style="stroke: #000000"/>
     <use xlink:href="#m4feda94def" x="169.823445" y="112.489719" style="stroke: #000000"/>
     <use xlink:href="#m4feda94def" x="255.258852" y="126.606595" style="stroke: #000000"/>
     <use xlink:href="#m4feda94def" x="340.694258" y="142.430318" style="stroke: #000000"/>
     <use xlink:href="#m4feda94def" x="426.129665" y="143.539769" style="stroke: #000000"/>
    </g>
   </g>
  </g>
 </g>
 <defs>
  <clipPath id="p9cc22f79a0">
   <rect x="10.7" y="7.2" width="446.4" height="166.32"/>
  </clipPath>
 </defs>
</svg>
